<svg xmlns="http://www.w3.org/2000/svg" viewBox="0 0 48 48"><defs><style>.cls-1{fill:#bdcbd5;}.cls-2{fill:#3d474c;}.cls-3{fill:#fff;}</style></defs><title>app-icon-medium</title><g id="Fam_Names_Use_Swatches_" data-name="Fam Names (Use Swatches)"><rect class="cls-1" y="6" width="42" height="42"/><rect class="cls-2" x="6" width="42" height="42"/><path class="cls-3" d="M21.76,18V29.15A5.25,5.25,0,0,1,20.37,33a5.36,5.36,0,0,1-3.91,1.34,5.37,5.37,0,0,1-4-1.36,5.26,5.26,0,0,1-1.37-3.91V18H14.4V29.09a3.29,3.29,0,0,0,.45,2,1.9,1.9,0,0,0,1.61.59,1.87,1.87,0,0,0,1.59-.58,3.34,3.34,0,0,0,.45-1.92V18Z"/><path class="cls-3" d="M29.29,23.52,31.47,18h3.74l-3.8,8,3.89,8.14H31.51l-2.22-5.64-2.2,5.64H23.3L27.19,26l-3.81-8h3.74Z"/><path class="cls-1" d="M13.6,7.88,14.94,13l1.34-5.15h1.88V15H16.71V13.08l.14-3L15.42,15h-1L13,10.11l.14,3V15H11.72V7.88Z"/><path class="cls-1" d="M21,11.28l.62-1.57H23.1L21.89,12.3,23.14,15H21.67L21,13.35,20.37,15H18.9l1.25-2.7L19,9.71h1.47Z"/></g></svg>