<svg xmlns="http://www.w3.org/2000/svg" viewBox="0 0 128 128"><defs><style>.cls-1{fill:#bdcbd5;}.cls-2{fill:#3d474c;}.cls-3{fill:#fff;}</style></defs><title>app-icon-largest</title><g id="Fam_Names_Use_Swatches_" data-name="Fam Names (Use Swatches)"><rect class="cls-1" y="16" width="112" height="112"/><rect class="cls-2" x="16" width="112" height="112"/><path class="cls-3" d="M58,47.92V77.74Q58,84.46,54.33,88T43.88,91.59Q37,91.59,33.3,88c-2.43-2.4-3.65-5.89-3.65-10.44V47.92h8.76V77.57c0,2.44.39,4.19,1.18,5.23s2.22,1.57,4.29,1.57,3.49-.52,4.26-1.55,1.17-2.74,1.19-5.11V47.92Z"/><path class="cls-3" d="M78.12,62.71l5.8-14.79h10L83.77,69.28,94.13,91H84L78.12,75.94,72.23,91H62.14L72.5,69.28,62.35,47.92h10Z"/><path class="cls-1" d="M36.26,21l3.58,13.72L43.41,21h5V40H44.57V34.87L44.93,27l-3.8,13H38.52L34.73,27l.35,7.91V40H31.25V21Z"/><path class="cls-1" d="M56,30.09l1.65-4.19h3.91l-3.22,6.9L61.71,40H57.78l-1.73-4.42L54.33,40H50.39l3.34-7.21-3.2-6.9h3.93Z"/></g></svg>