<svg xmlns="http://www.w3.org/2000/svg" viewBox="0 0 32 32"><defs><style>.cls-1{fill:#bdcbd5;}.cls-2{fill:#3d474c;}.cls-3{fill:#fff;}</style></defs><title>app-icon-small</title><g id="Fam_Names_Use_Swatches_" data-name="Fam Names (Use Swatches)"><rect class="cls-1" y="4" width="28" height="28"/><rect class="cls-2" x="4" width="28" height="28"/><path class="cls-3" d="M14.51,12v7.46A3.48,3.48,0,0,1,13.58,22,3.59,3.59,0,0,1,11,22.9,3.61,3.61,0,0,1,8.33,22a3.54,3.54,0,0,1-.92-2.62V12H9.6v7.41a2.2,2.2,0,0,0,.3,1.31,1.25,1.25,0,0,0,1.07.39A1.3,1.3,0,0,0,12,20.71a2.22,2.22,0,0,0,.29-1.28V12Z"/><path class="cls-3" d="M19.53,15.68,21,12h2.49l-2.53,5.34,2.59,5.43H21L19.53,19l-1.47,3.77H15.54l2.58-5.43L15.59,12h2.49Z"/><path class="cls-1" d="M9.06,5.26,10,8.69l.89-3.43H12.1V10h-1V8.72l.09-2-1,3.26H9.63l-1-3.26.09,2V10h-1V5.26Z"/><path class="cls-1" d="M14,7.52l.41-1h1L14.59,8.2l.84,1.8h-1L14,8.9,13.58,10h-1l.83-1.8-.8-1.72h1Z"/></g></svg>