<svg xmlns="http://www.w3.org/2000/svg" viewBox="0 0 30 30"><defs><style>.cls-1{fill:#fff;}</style></defs><title>applogo-mx</title><g id="Layer_1" data-name="Layer 1"><path class="cls-1" d="M26,0H4A4,4,0,0,0,0,4V26a4,4,0,0,0,4,4H26a4,4,0,0,0,4-4V4A4,4,0,0,0,26,0Zm.82,20.43H23.6L22.39,18l-1.22,2.45H15v-7.8a1.22,1.22,0,0,0-2.43,0v7.8H9.36V12.62a1.22,1.22,0,0,0-2.43,0v7.81H3.71V9.57H6.93v1.27H7a2.61,2.61,0,0,1,1.14-1,4,4,0,0,1,1.57-.28,3.16,3.16,0,0,1,1.52.36,2.65,2.65,0,0,1,1,1,3.73,3.73,0,0,1,1.28-1,4.22,4.22,0,0,1,1.72-.33,4,4,0,0,1,1.1.17,3,3,0,0,1,.91.45,2.37,2.37,0,0,1,.63.71A2.6,2.6,0,0,1,18.21,12v7.89L20.7,15,18,9.57h3.22L22.39,12,23.6,9.57h3.22L24.07,15Z"/></g></svg>