<svg xmlns="http://www.w3.org/2000/svg" viewBox="0 0 48 36"><defs><style>.cls-1{fill:#464646;}</style></defs><title>image-preview</title><g id="Layer_2" data-name="Layer 2"><g id="Layer_1-2" data-name="Layer 1"><path class="cls-1" d="M12.07,18.15a6.1,6.1,0,1,1,6.12-6.1A6.11,6.11,0,0,1,12.07,18.15Zm0-9.92a3.82,3.82,0,1,0,3.83,3.82A3.83,3.83,0,0,0,12.07,8.23ZM48,0H0V36H48ZM2.29,2.28H45.71V18.37l-7.77-13-7.35,12L25.33,9.52,8.81,33.72H2.29Zm9.28,31.44L25.31,13.6l5.36,8L37.92,9.81l7.79,13V33.72Z"/></g></g></svg>