<svg xmlns="http://www.w3.org/2000/svg" viewBox="0 0 101.76 16"><defs><style>.cls-1{fill:#00abad;fill-rule:evenodd;}</style></defs><title>logo-siemens-color</title><g id="Layer_2" data-name="Layer 2"><g id="Layer_1-2" data-name="Layer 1"><path class="cls-1" d="M.31,15.44v-3a15.67,15.67,0,0,0,4.63.82c1.85,0,2.77-.49,2.77-1.46a1.17,1.17,0,0,0-.4-.91A8.2,8.2,0,0,0,5.19,9.75a14.47,14.47,0,0,1-4-2.14A3.9,3.9,0,0,1,0,4.67,4,4,0,0,1,1.75,1.19,7.83,7.83,0,0,1,6.26,0,25.75,25.75,0,0,1,10.7.56V3.49a11,11,0,0,0-4-.86c-1.74,0-2.61.48-2.61,1.43a1,1,0,0,0,.53.87C4.9,5.11,5.7,5.5,7,6.09a13.52,13.52,0,0,1,3.78,2.18,3.79,3.79,0,0,1,1.12,2.84,4.21,4.21,0,0,1-2.19,3.82A8.85,8.85,0,0,1,5.12,16a21.54,21.54,0,0,1-4.81-.56Zm14,.25V.27h4.33V15.69Zm8.3,0V.27H33.76V3.06H26.82V6.54h6V9.08h-6v3.66h7.12v2.95Zm14.11,0V.27h5.61l3.9,9.85,4-9.85H55.6V15.69H51.5V4.77L47,15.84H44.27L39.81,4.77V15.69Zm22.81,0V.27h11.1V3.06H63.74V6.54h6V9.08h-6v3.66h7.11v2.95Zm14.13,0V.27h5L84,10.59V.27h3V15.69H82.22L76.75,5.23V15.69Zm16.46-.25v-3a15.46,15.46,0,0,0,4.63.82c1.85,0,2.78-.49,2.78-1.46a1.2,1.2,0,0,0-.4-.91A8,8,0,0,0,95,9.75a14.25,14.25,0,0,1-4-2.14,3.91,3.91,0,0,1-1.2-2.95A3.93,3.93,0,0,1,91.6,1.19,7.86,7.86,0,0,1,96.12,0a21.79,21.79,0,0,1,4,.5l.38.06V3.49a11,11,0,0,0-4-.86c-1.73,0-2.6.48-2.6,1.43a1,1,0,0,0,.53.87c.28.18,1.08.56,2.42,1.16a13.8,13.8,0,0,1,3.76,2.18,3.79,3.79,0,0,1,1.12,2.84,4.22,4.22,0,0,1-2.18,3.82A8.89,8.89,0,0,1,95,16a21.54,21.54,0,0,1-4.81-.56Z"/></g></g></svg>