<svg id="Layer_1" data-name="Layer 1" xmlns="http://www.w3.org/2000/svg" viewBox="0 0 48 48"><defs><style>.cls-1{fill:#555;}</style></defs><title>zeplin-icon</title><path class="cls-1" d="M5.12,40.15l.16-9,3.8-1.39.3.84c.72,2,2.52,3.51,5.19,4.41l2.41.81ZM7,32.4,7,37.59l4.93-1.8A8.84,8.84,0,0,1,8.06,32Z"/><path class="cls-1" d="M5.89,32.83,0,26l11.89-4.34-1.34,2.18c-1.48,2.42-1.89,4.75-1.17,6.73l.31.84ZM3,26.82l3.39,3.91,1-.37A8.75,8.75,0,0,1,8,25Z"/><path class="cls-1" d="M20.51,37.66a19,19,0,0,1-8-1.54,8.88,8.88,0,0,1-4.83-4.91h0c-2.36-6.51,4.53-14.8,15.7-18.88,7.09-2.59,14.49-2.8,19.3-.56a8.88,8.88,0,0,1,4.83,4.89C49.9,23.17,43,31.47,31.83,35.54A33.34,33.34,0,0,1,20.51,37.66ZM34.71,12A31.77,31.77,0,0,0,24,14C14,17.68,7.39,25.12,9.38,30.6h0a7.05,7.05,0,0,0,3.91,3.91c4.39,2,11.26,1.8,17.93-.64,10.06-3.67,16.63-11.12,14.64-16.6A7.11,7.11,0,0,0,42,13.39,17.3,17.3,0,0,0,34.71,12Z"/><path class="cls-1" d="M28.86,42.58c-1.44,0-2.69-1.82-3.83-5.55a61.54,61.54,0,0,1-2.12-11.37,62.23,62.23,0,0,1-5.68-10.1c-1.56-3.72-1.73-5.94-.5-6.81a1.79,1.79,0,0,1,1-.31c1.23,0,2.93,1,5.09,3,.5-3.92,1.47-5.89,2.95-6h.14c1.48,0,2.82,2,4,6l.11.37-1.61.31-.09-.31a18,18,0,0,0-1.44-3.69c-.49-.87-.84-1.1-1-1.1s-1,.88-1.5,4.74a62.24,62.24,0,0,0,0,12.48l.08.83.45.66a67.47,67.47,0,0,0,6.88,8.46l.3-.1,0,.42.81.78C35.67,37.86,36.79,38,37,38s.59-1.38-1.1-5.26l-.2-.46,1.43-.8.25.56c1.72,3.93,1.94,6.38.68,7.26a1.71,1.71,0,0,1-1,.31h0c-1.25,0-2.91-1-5.1-3-.5,3.89-1.46,5.85-2.94,6Zm-4-14.14a55.31,55.31,0,0,0,1.7,8.12A16.48,16.48,0,0,0,28,40c.48.82.81,1,.9,1,.24,0,1.18-1.14,1.61-5.8A67.22,67.22,0,0,1,24.87,28.44ZM17.78,10.06a.35.35,0,0,0-.12,0c-.16.11-.45,1.27,1.06,4.85a53.81,53.81,0,0,0,3.91,7.34,67.49,67.49,0,0,1,0-8.77C19.42,10.32,18.11,10.06,17.78,10.06Z"/><path class="cls-1" d="M22.47,33.1a32.27,32.27,0,0,1-5.9.78c-3.07.08-5.27-.49-6.31-1.57l11.36-4.48c-.07-.54-.14-1.07-.2-1.62,0-.06-.07-.12-.11-.17L9.62,30.65c.07-2.38,3.25-5.94,8.85-9.2-.3-.53-.58-1-.85-1.56-7,4.05-10.89,8.85-9.53,12.32C9,34.45,11.77,35.66,16,35.66h.6a34,34,0,0,0,6.23-.82C22.71,34.29,22.59,33.69,22.47,33.1Z"/><path class="cls-1" d="M47.53,16.64l-.18.07.18-.07c-.92-2.34-3.92-3.55-8.52-3.44a42.79,42.79,0,0,0-13.35,2.93c0,.62,0,1.26,0,1.91A41.77,41.77,0,0,1,39.05,15c3-.09,5.26.48,6.3,1.56L25.94,24.21l0,.34.23.32c.21.31.43.6.64.9L46,18.2c-.09,3.2-5.79,8.51-15.41,12.38.42.49.84,1,1.25,1.41C42.54,27.55,49.25,21,47.53,16.64Z"/></svg>