<?xml version="1.0" standalone="no"?>
<!DOCTYPE svg PUBLIC "-//W3C//DTD SVG 1.1//EN" "http://www.w3.org/Graphics/SVG/1.1/DTD/svg11.dtd" >
<svg xmlns="http://www.w3.org/2000/svg" xmlns:xlink="http://www.w3.org/1999/xlink" version="1.1">
<metadata></metadata>
<defs>
<font id="selawiksemibold" horiz-adv-x="1153" >
<font-face units-per-em="2048" ascent="1638" descent="-410" />
<missing-glyph horiz-adv-x="564" />
<glyph horiz-adv-x="0" />
<glyph unicode="&#xd;" horiz-adv-x="199" />
<glyph unicode=" "  horiz-adv-x="564" />
<glyph unicode="&#x09;" horiz-adv-x="564" />
<glyph unicode="&#xa0;" horiz-adv-x="564" />
<glyph unicode="!" horiz-adv-x="641" d="M173 121q0 65 40 105t107 40q66 0 106.5 -40t40.5 -105q0 -64 -40.5 -103.5t-106.5 -39.5q-67 0 -107 39t-40 104zM206 1434h238l-19 -1017h-201z" />
<glyph unicode="&#x22;" horiz-adv-x="941" d="M182 1000v468h208v-468h-208zM551 1000v468h208v-468h-208z" />
<glyph unicode="#" horiz-adv-x="1212" d="M34 478l29 167h229l53 253h-241l29 167h247l77 369h183l-78 -369h212l80 373h180l-79 -373h218l-29 -167h-225l-54 -253h238l-29 -167h-245l-76 -355h-180l76 355h-211l-76 -359h-180l75 359h-223zM473 645h212l54 253h-212z" />
<glyph unicode="$" d="M97 98l91 236q118 -59 198 -81t165 -22q132 0 192.5 49.5t60.5 132.5q0 50 -33.5 86t-85 60.5t-141.5 58.5q-127 48 -208 91.5t-139 122t-58 199.5q0 166 93 267.5t246 136.5v185h233v-168q155 -11 304 -72l-85 -230l-25 9q-62 24 -116 37t-130 13q-98 0 -167 -39 t-69 -122q0 -43 29.5 -75t75 -54.5t127.5 -54.5q127 -51 208.5 -97t140.5 -131.5t59 -216.5q0 -167 -91.5 -277t-260.5 -145v-207h-233v195q-91 7 -180.5 34t-200.5 79z" />
<glyph unicode="%" horiz-adv-x="1743" d="M87 1088q0 100 47 181.5t128.5 128.5t182.5 47q94 0 169.5 -43.5t119 -119.5t43.5 -169q0 -102 -46.5 -185t-128 -130.5t-181.5 -47.5q-94 0 -170.5 44.5t-120 121.5t-43.5 172zM306 -20l913 1500l203 -87l-912 -1500zM316 1097q0 -61 33.5 -102t83.5 -41q33 0 60 20 t42.5 54.5t15.5 76.5q0 58 -32.5 97t-79.5 39q-53 0 -88 -41.5t-35 -102.5zM965 328q0 100 47 181.5t128.5 128.5t182.5 47q94 0 170 -43.5t119.5 -119.5t43.5 -169q0 -102 -46.5 -185t-128 -130.5t-181.5 -47.5q-94 0 -170.5 44.5t-120.5 121.5t-44 172zM1195 338 q0 -61 33 -102.5t83 -41.5q33 0 60 20t42.5 55t15.5 77q0 58 -32 96.5t-80 38.5q-52 0 -87 -41t-35 -102z" />
<glyph unicode="&#x26;" horiz-adv-x="1706" d="M116 342q0 98 48.5 170t125 121.5t187.5 98.5q-126 187 -126 345q0 182 107.5 282t304.5 100q190 0 293 -97t103 -275q0 -141 -90 -239.5t-246 -182.5q114 -112 268 -215q82 85 151 190.5t120 221.5l184 -96q-48 -119 -117.5 -228t-155.5 -201q195 -110 410 -194 l-72 -185q-275 92 -508 227q-132 -99 -275 -153.5t-281 -54.5q-134 0 -231.5 46.5t-148.5 129t-51 189.5zM358 332q0 -69 61 -108.5t168 -39.5q80 0 164.5 30.5t167.5 87.5q-177 124 -306 260q-83 -41 -136.5 -74t-86 -72t-32.5 -84zM594 1077q0 -117 94 -253 q116 56 178.5 119.5t62.5 154.5q0 85 -44 133t-122 48q-80 0 -124.5 -53.5t-44.5 -148.5z" />
<glyph unicode="'" horiz-adv-x="557" d="M171 1000v468h208v-468h-208z" />
<glyph unicode="(" horiz-adv-x="710" d="M155 549q0 264 74 472t239 403l156 -100q-122 -183 -177.5 -366.5t-55.5 -408.5q0 -221 54.5 -401.5t176.5 -360.5l-151 -106q-166 183 -241 388.5t-75 479.5z" />
<glyph unicode=")" horiz-adv-x="710" d="M94 1324q122 -183 177.5 -366.5t55.5 -408.5q0 -221 -54.5 -401.5t-176.5 -360.5l151 -106q166 183 241 388.5t75 479.5q0 264 -74 472t-239 403z" />
<glyph unicode="*" horiz-adv-x="906" d="M112 974l216 104l-216 104l84 148l198 -135l-16 239h169l-17 -239l198 135l85 -148l-215 -104l215 -104l-85 -148l-198 135l17 -239h-169l16 239l-198 -135z" />
<glyph unicode="+" horiz-adv-x="1432" d="M223 480v220h385v386h219v-386h385v-220h-385v-384h-219v384h-385z" />
<glyph unicode="," horiz-adv-x="518" d="M32 -187q65 109 97.5 211.5t39.5 210.5h240q0 -151 -46.5 -289.5t-133.5 -236.5z" />
<glyph unicode="-" horiz-adv-x="825" d="M143 423v190h547v-190h-547z" />
<glyph unicode="." horiz-adv-x="518" d="M119 121q0 65 40 105t107 40q66 0 106.5 -40t40.5 -105q0 -64 -40.5 -103.5t-106.5 -39.5q-67 0 -107 39t-40 104z" />
<glyph unicode="/" horiz-adv-x="871" d="M-8 -166l214 -71l673 1674l-218 71z" />
<glyph unicode="0" d="M94 687q0 244 58.5 417t171 263.5t270.5 90.5v-2q148 0 252.5 -86t159 -251t54.5 -397q0 -237 -58.5 -405t-170 -256t-268.5 -88q-148 0 -253.5 84t-160.5 244t-55 386zM364 694q0 -154 25.5 -263.5t74 -167t116.5 -57.5l1 1q100 0 155 130.5t55 368.5q0 248 -53.5 383.5 t-150.5 135.5q-71 0 -121 -62.5t-76 -181.5t-26 -287z" />
<glyph unicode="1" d="M181 1320l481 146h142l1 -1467h-253v1175l-322 -84z" />
<glyph unicode="2" d="M115 0v61q0 165 48 279.5t115.5 184t175.5 152.5q83 64 129.5 108.5t78 107t31.5 145.5q0 184 -228 184q-63 0 -129.5 -11.5t-141.5 -29.5l-41 -9l-26 246l41 7q79 16 158 26.5t162 10.5q201 0 332 -86t131 -303q0 -138 -44 -238t-106 -164.5t-160 -143.5 q-71 -57 -111 -96t-66.5 -88t-26.5 -109h569v-234h-891z" />
<glyph unicode="3" d="M152 19l28 224q45 -14 114 -25t139 -11q127 0 210 42t83 141q0 228 -379 228l-6 245q334 0 334 211q0 95 -69.5 133.5t-176.5 38.5q-94 0 -208 -25l-18 210l27 4q74 11 135.5 18t131.5 7q191 0 318 -75.5t127 -269.5q0 -284 -260 -364v-4q99 -11 168.5 -60.5t105 -123.5 t35.5 -158q0 -237 -152 -331.5t-373 -94.5q-95 0 -182.5 13.5t-131.5 26.5z" />
<glyph unicode="4" d="M36 266v162l662 1006l242 -1v-960h158v-207h-158v-267h-230v267h-674zM327 473h383v582z" />
<glyph unicode="5" d="M143 36l31 221q41 -16 124.5 -32.5t165.5 -16.5q125 0 205 50t80 170q0 113 -82.5 171t-221.5 58q-42 0 -123.5 -4t-123.5 -8l35 789h703l-3 -241h-460l-17 -315l39 2q36 3 57 3q152 0 254 -57t151.5 -156.5t49.5 -228.5q0 -254 -153 -358t-374 -104q-75 0 -146 9.5 t-122 23t-69 24.5z" />
<glyph unicode="6" d="M108 630q0 290 65 471.5t197 267.5t338 86q106 0 238 -23l-30 -244q-93 15 -167 15q-135 0 -215.5 -46.5t-117.5 -130.5t-46 -207q112 88 269 88q142 0 235 -63.5t136.5 -165t43.5 -215.5q0 -155 -61.5 -265.5t-166 -167t-232.5 -56.5q-280 0 -383 192.5t-103 463.5z M369 604q3 -121 14 -197t61.5 -137.5t157.5 -61.5q106 0 153 65t47 166q0 93 -51.5 157t-161.5 64q-134 5 -220 -56z" />
<glyph unicode="7" d="M131 1189v245h950l2 -93l-469 -1341h-266l418 1189h-635z" />
<glyph unicode="8" d="M97 400q0 86 37.5 161t102.5 130.5t146 84.5q-101 52 -162 136.5t-61 177.5q0 105 51.5 189t147 131.5t222.5 47.5q117 0 212 -44t150 -127.5t55 -196.5q0 -92 -59 -176.5t-157 -137.5q79 -29 142 -85t99.5 -131t36.5 -160q0 -122 -58.5 -218.5t-167 -150.5t-254.5 -54 q-147 0 -256.5 54.5t-168 150.5t-58.5 218zM360 414q0 -72 29 -123.5t80 -78.5t116 -27q70 0 120.5 30t76.5 82t26 116q0 68 -30 118t-81 76.5t-113 26.5q-69 0 -120 -29.5t-77.5 -79.5t-26.5 -111zM413 1081q0 -48 21 -88t60.5 -63.5t91.5 -23.5q44 0 81 21t59 61t22 93 q0 75 -43 124.5t-117 49.5q-52 0 -91.5 -22.5t-61.5 -62t-22 -89.5z" />
<glyph unicode="9" d="M93 988q0 136 56.5 243t161.5 167.5t244 60.5q255 0 368 -169.5t113 -490.5q0 -381 -132.5 -601.5t-460.5 -220.5q-94 0 -201 19l20 249q91 -19 166 -19q170 0 249 97.5t98 287.5q-91 -81 -274 -81q-108 0 -201.5 52.5t-150 156t-56.5 249.5zM356 1011q0 -82 28.5 -138.5 t77.5 -84t111 -27.5q139 0 210 93q-4 139 -27 221.5t-71 120.5t-128 38q-108 0 -154.5 -63t-46.5 -160z" />
<glyph unicode=":" horiz-adv-x="518" d="M92 142q0 48 22 85.5t60 59t86 21.5t86 -21.5t59.5 -59.5t21.5 -85q0 -48 -21.5 -85.5t-60.5 -59t-88 -21.5q-46 0 -84 22t-59.5 60t-21.5 84zM92 857q0 48 22 85.5t60 59t86 21.5t86 -21.5t59.5 -59.5t21.5 -85t-21.5 -85t-60.5 -59t-88 -21q-46 0 -84 22t-59.5 59.5 t-21.5 83.5z" />
<glyph unicode=";" horiz-adv-x="518" d="M59 -187q65 109 97.5 211.5t39.5 210.5h240q-1 -151 -47.5 -290t-132.5 -236zM96 877q0 46 21.5 83t59.5 58t84 21q47 0 84.5 -21t58.5 -58t21 -83q0 -47 -21.5 -84.5t-59.5 -58.5t-86 -21q-45 0 -82 21.5t-58.5 59.5t-21.5 83z" />
<glyph unicode="&#x3c;" horiz-adv-x="1432" d="M263 521l909 -428v248l-560 242v4l560 263v255l-909 -456v-128z" />
<glyph unicode="=" horiz-adv-x="1432" d="M236 217v219h963v-219h-963zM236 661v221h963v-221h-963z" />
<glyph unicode="&#x3e;" horiz-adv-x="1432" d="M263 93v248l560 242v4l-560 263v255l909 -456v-128z" />
<glyph unicode="?" horiz-adv-x="904" d="M124 1420q66 18 143.5 28t152.5 10q189 0 292.5 -91t103.5 -257q0 -100 -24.5 -167t-59.5 -106t-92 -84q-45 -36 -70.5 -62t-43 -66t-17.5 -97v-168h-221v162q0 104 23.5 172t57 105.5t87.5 80.5q41 33 64 57t38.5 60t15.5 88q0 76 -43.5 118t-123.5 43q-98 0 -246 -35z M256 121q0 65 40 105t107 40t107.5 -40t40.5 -105q0 -64 -40.5 -103.5t-107.5 -39.5t-107 39t-40 104z" />
<glyph unicode="@" horiz-adv-x="1955" d="M147 475q0 312 88.5 506t274.5 286t485 92q288 0 467 -83t264 -258t85 -456q0 -214 -56 -346.5t-174.5 -195.5t-309.5 -63h-1q-51 105 -73 200q-19 -50 -65 -92t-108 -67t-125 -25q-102 0 -182.5 31t-127.5 96t-47 162q0 101 50.5 174.5t143.5 113t218 39.5 q112 0 223 -53v64q0 92 -48 134.5t-140 42.5q-50 0 -142.5 -10.5t-171.5 -27.5l-28 218q141 20 221 29.5t134 9.5q211 0 320.5 -96t110.5 -286l2 -288q1 -84 23 -167q79 43 116.5 139t37.5 253q0 220 -64 356.5t-199 201.5t-352 65q-225 0 -365.5 -73t-207 -227.5 t-66.5 -402.5q0 -241 69.5 -391.5t216 -221.5t381.5 -71q147 0 270 26.5t249 85.5l63 -174q-119 -68 -256.5 -99t-323.5 -31q-310 0 -503.5 91.5t-285 285t-91.5 503.5zM798 271q0 -44 44 -71t114 -27q65 0 115.5 24.5t78 66.5t27.5 94v1q-92 27 -198 27q-84 0 -133 -30.5 t-48 -84.5z" />
<glyph unicode="A" horiz-adv-x="1400" d="M15 0l531 1434h313l524 -1434h-292l-93 277h-604l-92 -277h-287zM464 485h464l-208 618q-4 16 -11 44.5t-12 51.5h-4q-2 -15 -11 -51t-13 -45z" />
<glyph unicode="B" horiz-adv-x="1267" d="M172 1v1434h511q124 0 221.5 -39t153 -113t55.5 -176q0 -123 -72 -212.5t-202 -127.5v-4q106 -11 183.5 -57.5t119.5 -122t42 -171.5q0 -124 -64.5 -217.5t-176.5 -144t-250 -50.5zM437 838h152q115 0 180.5 53t65.5 151q0 94 -59 142t-167 48h-172v-394zM438 204h208 q123 0 192 57.5t69 164.5t-78 161t-219 54h-172v-437z" />
<glyph unicode="C" horiz-adv-x="1275" d="M80 713q0 236 90 404t262 255.5t414 87.5q150 0 324 -44l-69 -243q-47 16 -125.5 26t-143.5 10q-150 0 -256.5 -58t-162 -167.5t-55.5 -262.5q0 -154 48.5 -264t142 -167.5t224.5 -57.5q138 0 352 69l62 -243q-98 -38 -212.5 -58t-224.5 -20q-212 0 -362.5 86t-229 250.5 t-78.5 396.5z" />
<glyph unicode="D" horiz-adv-x="1485" d="M172 -2v1435h499q363 0 548 -172t185 -527q0 -224 -93 -389.5t-262.5 -255t-392.5 -89.5zM437 225h221q150 0 256.5 59t162 171.5t55.5 272.5q0 242 -118 362q-117 119 -343 119h-4l-230 -2v-982z" />
<glyph unicode="E" horiz-adv-x="1072" d="M172 0v1434h795v-219h-530v-378h468v-221h-468v-397h562v-219h-827z" />
<glyph unicode="F" horiz-adv-x="1043" d="M172 0v1434h795v-219h-530v-406h468v-223h-468v-586h-265z" />
<glyph unicode="G" horiz-adv-x="1439" d="M81 700q0 237 99.5 408t276.5 261t407 90q98 0 209.5 -13.5t211.5 -32.5l-75 -231q-70 13 -162 25t-175 12q-160 0 -274 -59.5t-173.5 -173.5t-59.5 -275q0 -157 53.5 -270.5t155.5 -173.5t244 -60q67 0 127.5 15.5t104.5 44.5v308h-284v217h546l1 -692 q-114 -58 -253.5 -90t-280.5 -32q-204 0 -362.5 85.5t-247.5 248.5t-89 388z" />
<glyph unicode="H" horiz-adv-x="1531" d="M171 0v1434h264v-604h657v604h267v-1434h-267v601h-657v-601h-264z" />
<glyph unicode="I" horiz-adv-x="614" d="M175 0v1434h264v-1434h-264z" />
<glyph unicode="J" horiz-adv-x="852" d="M56 -239q130 13 207.5 37.5t123 86.5t45.5 179v1370h261v-1454q0 -238 -161.5 -344.5t-441.5 -117.5z" />
<glyph unicode="K" horiz-adv-x="1282" d="M172 0v1434h265v-637q35 64 89 129l453 558l291 -25l-457 -555l474 -904h-314l-341 684l-195 -236v-448h-265z" />
<glyph unicode="L" horiz-adv-x="1019" d="M172 0v1434h265v-1189h552v-245h-817z" />
<glyph unicode="M" horiz-adv-x="1920" d="M173 0v1434h402l315 -846l21 -71q7 -25 22.5 -76.5t24.5 -86.5h6l67 236l327 844h391v-1434h-256v863q0 217 4 330h-4q-16 -82 -37 -142l-402 -1051h-204l-405 1047q-18 39 -34 134h-4q5 -57 5 -326v-855h-239z" />
<glyph unicode="N" horiz-adv-x="1589" d="M172 0v1435h311l628 -952q12 -18 31.5 -56.5t29.5 -59.5h4q-5 37 -8 104t-3 126v837h252l1 -1434h-298l-646 978q-11 17 -27 51t-25 59h-6q4 -21 6 -88.5t2 -129.5v-870h-252z" />
<glyph unicode="O" horiz-adv-x="1550" d="M80 712q0 219 85 388t241.5 263t364.5 94q211 0 369.5 -94t243.5 -263q84 -167 84 -383v-5q0 -217 -85.5 -384.5t-243.5 -260t-368 -92.5q-208 0 -364.5 92.5t-241.5 260t-85 384.5zM365 712q0 -151 49.5 -265t141.5 -176.5t217 -62.5t218 62t142.5 175.5t49.5 263.5 q0 154 -49 270t-141.5 180t-219.5 64q-125 0 -217 -63.5t-141.5 -179t-49.5 -268.5z" />
<glyph unicode="P" horiz-adv-x="1221" d="M173 0v1434h497q153 0 263.5 -52.5t170 -155.5t59.5 -251q0 -142 -67 -247t-186 -161.5t-272 -56.5h-201v-510h-264zM436 724h190q121 0 189.5 61.5t68.5 181.5q0 252 -236 252l-212 -1v-494z" />
<glyph unicode="Q" horiz-adv-x="1550" d="M80 712q0 219 85 388t241.5 263t364.5 94q210 0 368 -93t243.5 -260.5t85.5 -384.5q0 -205 -74 -366t-211 -257q62 -88 152 -151.5t195 -94.5l-124 -218q-139 38 -259 132.5t-200 229.5q-80 -19 -176 -19q-208 0 -364.5 92.5t-241.5 260t-85 384.5zM365 712 q0 -151 49.5 -265t141.5 -176.5t217 -62.5t218 62t142.5 175.5t49.5 263.5q0 154 -49 270t-141.5 180t-219.5 64q-125 0 -217 -63.5t-141.5 -179t-49.5 -268.5z" />
<glyph unicode="R" horiz-adv-x="1300" d="M173 0v1434h506q143 0 249.5 -47.5t164.5 -139.5t58 -224q-1 -131 -73.5 -226.5t-198.5 -143.5l428 -653h-317l-394 612h-157v-612h-266zM438 776h142q139 0 216.5 59.5t77.5 170.5q0 112 -70 168q-68 55 -193 55h-9l-164 -1v-452z" />
<glyph unicode="S" horiz-adv-x="1128" d="M80 98l92 236q117 -59 197 -81t165 -22q132 0 193 49.5t61 132.5q0 50 -33.5 86t-84 60t-142.5 59q-128 48 -209 91.5t-138.5 122.5t-57.5 201q0 142 70 237t185 139.5t254 44.5q101 0 190 -19.5t176 -54.5l-85 -230l-25 9q-62 24 -116 37t-130 13q-98 0 -167 -39 t-69 -122q0 -43 29.5 -75t75 -54.5t127.5 -54.5q127 -51 209 -97t141 -131.5t59 -216.5q0 -134 -60.5 -232.5t-175.5 -151.5t-277 -53q-115 0 -218 27t-236 89z" />
<glyph unicode="T" horiz-adv-x="1158" d="M34 1211v223h1092v-223h-414v-1211h-265v1211h-413z" />
<glyph unicode="U" horiz-adv-x="1456" d="M154 557v877h266v-859q0 -362 316 -362q300 0 300 347v874h265v-854q0 -604 -582 -604q-288 0 -426.5 149t-138.5 432z" />
<glyph unicode="V" horiz-adv-x="1335" d="M12 1433h288l334 -1053q24 -72 30 -127h4q4 28 13.5 62.5t20.5 67.5l344 1051l278 -1l-508 -1434h-303z" />
<glyph unicode="W" horiz-adv-x="2010" d="M20 1434h290l240 -1005q22 -97 24 -144h5q3 24 12.5 66t19.5 78l285 1005h271l263 -1013q17 -71 24 -134h4q1 21 10 62t17 76l234 1009h270l-388 -1434h-297l-261 980q-8 32 -15 73.5t-8 72.5h-4q-6 -71 -26 -144l-271 -982h-307z" />
<glyph unicode="X" horiz-adv-x="1297" d="M13 0l466 723l-435 712h324l235 -458q37 -71 50 -102h4l20 40q17 36 36 70l255 449h298l-430 -711l449 -723h-317l-276 505q-28 55 -34 72h-4l-35 -71l-287 -506h-319z" />
<glyph unicode="Y" horiz-adv-x="1206" d="M6 1434h313l250 -566q11 -27 35 -102h3q9 37 37 102l263 566h297l-472 -931v-503h-265v499z" />
<glyph unicode="Z" horiz-adv-x="1218" d="M46 0v47l690 1148h-656v239h1079v-40l-685 -1149h691v-245h-1119z" />
<glyph unicode="[" horiz-adv-x="710" d="M211 -326v1760h436v-174h-214v-1412h214v-174h-436z" />
<glyph unicode="\" horiz-adv-x="854" d="M-15 1437l218 71l669 -1674l-214 -71z" />
<glyph unicode="]" horiz-adv-x="710" d="M64 -152v-174h436v1760h-436v-174h214v-1412h-214z" />
<glyph unicode="^" horiz-adv-x="1432" d="M212 615l427 843h130l455 -843h-225l-289 570h-5l-270 -570h-223z" />
<glyph unicode="_" horiz-adv-x="850" d="M17 -103h816v-193h-816v193z" />
<glyph unicode="`" horiz-adv-x="612" d="M144 1538h267l167 -341h-231z" />
<glyph unicode="a" horiz-adv-x="1082" d="M68 266q0 101 50.5 174.5t143.5 113t218 39.5q112 0 223 -53v64q0 92 -48 134.5t-141 42.5q-50 0 -142.5 -10.5t-171.5 -27.5l-28 218q141 20 221 29.5t134 9.5q211 0 320.5 -96t110.5 -286l2 -288q1 -147 74 -302l-239 -67q-48 100 -73 200q-19 -50 -65 -92t-107.5 -67 t-124.5 -25q-102 0 -182.5 31t-127.5 96t-47 162zM367 204.5q44 -27.5 115 -27.5q65 0 115.5 24.5t78 66.5t27.5 94q-92 28 -198 28q-85 0 -134 -30q-48 -30 -48 -83q0 -45 44 -72.5z" />
<glyph unicode="b" horiz-adv-x="1248" d="M144 1516h266v-655q52 60 133.5 99.5t177.5 39.5q138 0 239 -61t154.5 -172t53.5 -258q0 -163 -54.5 -282.5t-162.5 -184.5t-263 -65q-213 0 -274 172l-48 -149h-220zM410 595l1 -117q0 -97 35 -161.5t93 -95.5t128 -31q105 0 165.5 82.5t60.5 238.5q0 127 -63.5 199.5 t-178.5 72.5q-72 0 -128.5 -22.5t-112.5 -70.5v-95z" />
<glyph unicode="c" horiz-adv-x="971" d="M81 485q0 155 59 271q58 117 172 180q112 62 268 62h5h11q84 0 168 -14q88 -16 150 -42l-47 -219q-109 41 -226 41q-150 0 -217.5 -69t-67.5 -205q0 -144 72.5 -214.5t210.5 -70.5q59 0 104.5 10.5t118.5 34.5l65 -212q-88 -29 -180.5 -45t-175.5 -16q-153 0 -263.5 61 t-168.5 175.5t-58 271.5z" />
<glyph unicode="d" horiz-adv-x="1247" d="M81 472q0 157 63 276.5t179 185t268 65.5q134 0 252 -79v597h260v-1107q0 -87 12 -151t30.5 -112t51.5 -112l-262 -74q-52 108 -73 202q-82 -186 -325 -186q-148 0 -250 61t-154 172t-52 262zM355 483q0 -128 57 -208.5t165 -80.5q129 0 197 75t68 211l1 -1v235 q-53 36 -115 54.5t-124 18.5q-117 0 -183 -80t-66 -224z" />
<glyph unicode="e" horiz-adv-x="1096" d="M80 493q0 164 59.5 278.5t172 173t270.5 58.5q150 0 250.5 -62.5t148.5 -163.5t48 -219q0 -80 -24 -163l-657 -5q25 -93 95.5 -144t183.5 -51q67 0 142 15t150 44l51 -207q-71 -30 -180 -50t-198 -20q-243 0 -377.5 126.5t-134.5 389.5zM340 568l432 4q1 9 1 26 q0 80 -48.5 134.5t-151.5 54.5q-104 0 -161 -58.5t-72 -160.5z" />
<glyph unicode="f" horiz-adv-x="737" d="M49 772v202l172 1v156q0 188 85 295.5t302 107.5q34 0 128 -10l42 -5l-41 -223l-51 4q-48 4 -65 4q-55 0 -84.5 -18t-40.5 -53t-11 -92v-166l235 1v-204h-235v-770h-264v770h-172z" />
<glyph unicode="g" horiz-adv-x="1247" d="M79 472q0 157 63.5 276.5t179.5 185.5t269 66q143 0 276 -98l17 72h221l-1 -974q0 -246 -191 -363t-538 -119l-19 231q178 7 284.5 41.5t154.5 99t48 165.5v60q-89 -138 -306 -138q-137 0 -240.5 61.5t-160.5 173.5t-57 260zM355 483q0 -71 25 -137.5t78 -109t132 -42.5 q123 0 188 67.5t65 191.5v-1q0 212 1 279q-54 33 -113.5 46.5t-113.5 13.5q-80 0 -139 -37t-91 -106.5t-32 -164.5z" />
<glyph unicode="h" horiz-adv-x="1208" d="M144 0v1517h265v-624q113 107 291 107q126 0 212 -50t128.5 -138t42.5 -202v-610h-264v537q0 109 -46.5 177.5t-153.5 68.5q-59 0 -112.5 -22t-97.5 -62v-699h-265z" />
<glyph unicode="i" horiz-adv-x="553" d="M126 1371q0 42 20 76.5t54.5 54t77.5 19.5q42 0 76.5 -19.5t54 -54t19.5 -76.5q0 -43 -19.5 -77.5t-54 -54.5t-76.5 -20q-43 0 -77.5 20t-54.5 54.5t-20 77.5zM144 0v974h265v-974h-265z" />
<glyph unicode="j" horiz-adv-x="553" d="M-141 -235q114 14 175.5 46.5t86 90.5t24.5 156v916h265v-954q0 -253 -137.5 -371.5t-372.5 -130.5zM126 1371q0 41 20 75.5t55 54.5t77 20t76 -20t54 -54.5t20 -75.5q0 -42 -19.5 -77t-54 -55t-76.5 -20t-77 20t-55 55t-20 77z" />
<glyph unicode="k" horiz-adv-x="1103" d="M144 0v1516h266v-983q47 117 98 170l289 297l265 -26l-333 -371l363 -605h-282l-251 416l-149 -166v-248h-266z" />
<glyph unicode="l" horiz-adv-x="553" d="M144 0v1516h265v-1516h-265z" />
<glyph unicode="m" horiz-adv-x="1839" d="M144 0l2 974h222l33 -105q69 68 138.5 99.5t164.5 31.5q93 0 162.5 -32t115.5 -91q78 58 164 90.5t194 32.5q122 0 205.5 -50t124.5 -138t42 -202v-610h-264v564v13q0 87 -38 145q-42 62 -138 61q-129 0 -221 -69q10 -55 10 -104v-610h-264v564q-2 97 -42 158t-132 61 q-64 0 -115.5 -25t-96.5 -76l-2 -682h-265z" />
<glyph unicode="n" horiz-adv-x="1212" d="M144 0l2 974h222l29 -92q115 118 303 118q126 0 212 -50t128.5 -138t42.5 -202v-610h-264v537q0 109 -46.5 177.5t-153.5 68.5q-59 0 -112 -21.5t-96 -61.5l-2 -700h-265z" />
<glyph unicode="o" horiz-adv-x="1235" d="M80 482q0 154 67 271t189 181t282 64q161 0 283 -64q121 -64 187 -181q65 -115 65 -266q0 -157 -66.5 -271.5t-187.5 -177.5t-281 -63t-282 63t-189 178t-67 266zM344 480q0 -84 34.5 -147.5t97 -98t144.5 -34.5q79 0 139.5 35t94.5 99t35 148q-2 85 -36.5 149.5 t-94.5 100t-138 35.5q-82 0 -144.5 -36t-97 -101t-34.5 -150z" />
<glyph unicode="p" horiz-adv-x="1248" d="M144 -470l2 1444h221l37 -118q53 69 135 106.5t182 37.5q141 0 241.5 -57.5t153 -168t52.5 -265.5q0 -163 -54.5 -282.5t-162.5 -184.5t-263 -65q-120 0 -185.5 50t-92.5 135v-632h-266zM410 595l1 -117q0 -97 35 -161.5t93 -95.5t128 -31q105 0 165.5 82.5t60.5 238.5 q0 130 -63.5 201t-178.5 71q-70 0 -132.5 -23t-108.5 -65v-100z" />
<glyph unicode="q" horiz-adv-x="1247" d="M81 472q0 167 60 285.5t174.5 180.5t275.5 62q69 0 139.5 -25t134.5 -72l17 71l221 1v-1446l-261 -1v606q-90 -157 -305 -157q-148 0 -250 61t-154 172t-52 262zM355 483q0 -128 57 -208.5t165 -80.5q129 0 197 75t68 211v236q-52 35 -112.5 53.5t-125.5 18.5 q-119 0 -184 -80t-65 -225z" />
<glyph unicode="r" horiz-adv-x="781" d="M144 0l2 974h223l33 -167q88 197 266 197q51 0 103 -14l-28 -256q-28 3 -54 3q-172 0 -278 -117l-1 -620h-266z" />
<glyph unicode="s" horiz-adv-x="890" d="M73 53l67 214q161 -72 275 -74q161 1 162 100q0 35 -23 56.5t-57.5 34t-94.5 27.5q-92 24 -149.5 49t-100 81t-42.5 152q3 307 368 307q187 0 323 -60l-57 -218q-134 54 -246 54q-66 -1 -98 -18t-35 -58q0 -25 20 -42.5t50 -29t85 -27.5q93 -26 155 -54.5t107.5 -88 t45.5 -158.5q0 -325 -413 -325q-165 1 -342 78z" />
<glyph unicode="t" horiz-adv-x="763" d="M42 770l1 203h169v350h256v-350q87 1 156 1h91l-1 -203h-90.5t-155.5 -1v-388q0 -72 36 -122.5t120 -50.5q40 0 91 7v-234q-64 -6 -132 -6q-189 0 -280 78.5t-91 218.5v497h-170z" />
<glyph unicode="u" horiz-adv-x="1212" d="M126 368v605h265v-554q0 -107 43 -171.5t162 -64.5q58 0 106.5 28.5t77 83t28.5 127.5v552h261v-564q0 -87 11.5 -151t30 -112t51.5 -112l-261 -74q-46 93 -69 182q-14 -36 -53 -74t-105 -64.5t-154 -26.5q-143 0 -231 55t-125.5 142.5t-37.5 192.5z" />
<glyph unicode="v" horiz-adv-x="1067" d="M8 974h283l209 -629q7 -20 19.5 -77.5t14.5 -73.5h4q2 20 13.5 76t16.5 71l216 633h279l-391 -979h-294z" />
<glyph unicode="w" horiz-adv-x="1582" d="M19 974h270l165 -647q3 -19 7 -51t6 -55h8q2 21 8 60.5t10 50.5l196 642h250l177 -655q4 -18 8.5 -51.5t5.5 -47.5h8q2 18 6.5 52t7.5 45l160 657l251 1l-299 -980h-278l-175 605q-3 13 -8 49t-7 55h-4q-2 -19 -8.5 -55t-9.5 -48l-186 -606h-273z" />
<glyph unicode="x" horiz-adv-x="1067" d="M20 0l373 485l-351 489h285l214 -330h4l222 330h286l-360 -475l361 -499h-295l-220 327h-4l-219 -327h-296z" />
<glyph unicode="y" horiz-adv-x="1065" d="M2 974h298l218 -625l20 -78h6l20 76l229 627l274 2l-455 -1114q-62 -131 -137.5 -200t-150 -94.5t-189.5 -45.5l-25 -4l-37 240q126 19 197.5 64.5t118.5 135.5l18 47z" />
<glyph unicode="z" horiz-adv-x="963" d="M40 0v51l511 708h-471v215h838v-47l-496 -725h499v-202h-881z" />
<glyph unicode="{" horiz-adv-x="710" d="M100 474v161q153 5 153 200v246q0 126 40 203.5t123 113t217 36.5v-167q-160 -1 -160 -182v-240q0 -230 -152 -288v-4q152 -55 152 -290v-233q0 -102 37 -145t123 -44v-167q-133 1 -216.5 35.5t-123.5 110.5t-40 201v260q0 190 -153 193z" />
<glyph unicode="|" horiz-adv-x="609" d="M190 -481v2048h231v-2048h-231z" />
<glyph unicode="}" horiz-adv-x="710" d="M71 -159v-167q133 1 216.5 35.5t123.5 110.5t40 201v260q0 190 153 193v161q-153 5 -153 200v246q0 126 -40 203.5t-123 113t-217 36.5v-167q160 -1 160 -182v-240q0 -230 152 -288v-4q-152 -55 -152 -290v-233q0 -102 -37 -145t-123 -44z" />
<glyph unicode="~" horiz-adv-x="1432" d="M200 343q3 119 40.5 206t105 133.5t159.5 46.5q54 0 106.5 -20.5t125.5 -59.5q63 -34 104.5 -51t79.5 -17q49 0 76.5 41.5t29.5 112.5h208q-4 -119 -42 -206t-104.5 -133.5t-155.5 -46.5q-55 0 -106 20.5t-124 59.5q-63 34 -103 50t-78 16q-115 0 -121 -152h-201z" />
<glyph unicode="&#xa1;" horiz-adv-x="641" d="M174 882q0 64 40.5 103.5t106.5 39.5q67 0 107 -39t40 -104t-40 -105t-107 -40q-66 0 -106.5 40t-40.5 105zM197 -431l19 1017h201l18 -1017h-238z" />
<glyph unicode="&#xa2;" horiz-adv-x="1164" d="M174 485q0 138 46.5 245t136 174.5t216.5 86.5v259l223 1v-258q123 -13 211 -51l-47 -219q-109 41 -226 41q-150 0 -217.5 -69t-67.5 -205q0 -144 72.5 -214.5t210.5 -70.5q59 0 104.5 10.5t118.5 34.5l65 -212q-108 -35 -224 -52v-188l-223 -1v186q-126 17 -215.5 82.5 t-136.5 172t-47 247.5z" />
<glyph unicode="&#xa3;" d="M125 0v203q111 43 158.5 128.5t47.5 177.5v110h-180v186l180 1v195q0 211 97.5 332t345.5 121q78 0 177 -32l-16 -198q-97 29 -148 29q-84 0 -129.5 -27t-62.5 -78.5t-17 -136.5v-204h218v-188h-218v-103q-2 -80 -43 -163t-123 -150h548v-203h-835z" />
<glyph unicode="&#xa4;" horiz-adv-x="1139" d="M67 202l141 137q-69 111 -69 232q0 123 69 231l-141 139l126 129l141 -140q108 69 235 69q130 0 235 -69l142 140l125 -129l-140 -139q71 -112 71 -231q0 -117 -71 -232l140 -137l-125 -128l-141 140q-105 -69 -236 -69q-130 0 -235 69l-141 -140zM338 573 q0 -64 30.5 -117t83.5 -83.5t117 -30.5q65 0 118.5 30.5t84.5 83.5t31 117q0 63 -31.5 116t-85 83.5t-117.5 30.5t-117 -30.5t-83.5 -83t-30.5 -116.5z" />
<glyph unicode="&#xa5;" d="M50 1434h296l216 -523q6 -15 16 -44t19 -57h3q3 11 11.5 34t12.5 34l13 33l200 523h280l-330 -743h241v-180h-304v-138h304v-180h-304v-193h-262v193h-332v180h332v138h-332v180h264z" />
<glyph unicode="&#xa6;" horiz-adv-x="609" d="M190 399h231v-880h-231v880zM190 694v873h231v-873h-231z" />
<glyph unicode="&#xa7;" horiz-adv-x="969" d="M89 -4l67 197q163 -72 275 -74q78 1 120.5 33t41.5 84q0 35 -23 58t-56.5 38t-95.5 35q-91 30 -149 59t-100.5 88.5t-42.5 155.5q1 195 130 278q-62 40 -97.5 97.5t-36.5 141.5q0 151 92.5 229t269.5 78q188 0 323 -60l-57 -205q-128 57 -246 57q-65 -1 -98 -27t-35 -85 q0 -35 22.5 -59.5t57 -40.5t93.5 -38q91 -34 149.5 -66t101 -94.5t42.5 -162.5q0 -173 -116 -252q112 -77 113 -218q0 -160 -102 -242.5t-301 -82.5q-166 2 -342 78zM323 707q0 -45 29.5 -75t69 -47t123.5 -46q98 43 98 145q0 56 -38.5 92t-110.5 66q-83 -5 -126.5 -39 t-44.5 -96z" />
<glyph unicode="&#xa8;" horiz-adv-x="913" d="M82 1311q0 65 41 102.5t111 37.5t111.5 -37.5t41.5 -102.5t-41 -103t-111 -38t-111.5 38.5t-41.5 102.5zM517 1311q0 65 40.5 102.5t110.5 37.5t111.5 -37.5t41.5 -102.5t-41 -103t-111 -38t-111 38t-41 103z" />
<glyph unicode="&#xa9;" horiz-adv-x="1801" d="M141 714q0 207 101 378.5t276 270t387 98.5t384.5 -97t272 -267t99.5 -380q0 -207 -101 -377.5t-276 -269t-385 -98.5q-214 0 -387 96.5t-272 266t-99 379.5zM326 717q0 -163 75.5 -294.5t207 -206.5t293.5 -75q160 0 291.5 75.5t207 207t75.5 292.5q0 163 -75 295 t-206 207.5t-293 75.5q-163 0 -295 -75.5t-206.5 -207.5t-74.5 -294zM515 713q0 123 46.5 214.5t136 141.5t215.5 49q71 1 140.5 -11t118.5 -33l-37 -173q-87 33 -178 33q-119 0 -172 -54.5t-53 -162.5q0 -225 223 -225q46 0 81 8t95 28l51 -167q-69 -23 -142 -36t-138 -13 q-121 0 -208 48.5t-133 138.5t-46 214z" />
<glyph unicode="&#xab;" horiz-adv-x="1139" d="M53 487l319 344h278l-324 -344l324 -336h-278zM494 487l320 344h278l-325 -344l324 -336h-277z" />
<glyph unicode="&#xac;" horiz-adv-x="1432" d="M236 605v239h963v-595h-239v356h-724z" />
<glyph unicode="&#xad;" horiz-adv-x="825" d="M143 423v190h547v-190h-547z" />
<glyph unicode="&#xae;" horiz-adv-x="1801" d="M141 714q0 207 101 378.5t276 270t387 98.5t384.5 -97t272 -267t99.5 -380q0 -207 -101 -377.5t-276 -269t-385 -98.5q-214 0 -387 96.5t-272 266t-99 379.5zM326 717q0 -163 75.5 -294.5t207 -206.5t293.5 -75q160 0 291.5 75.5t207 207t75.5 292.5q0 163 -75 295 t-206 207.5t-293 75.5q-163 0 -295 -75.5t-206.5 -207.5t-74.5 -294zM648 355v758h303q112 0 177.5 -59t65.5 -169q0 -75 -40 -129.5t-108 -79.5l204 -321h-213l-187 301h-19v-301h-183zM831 784h57q51 0 77.5 19t26.5 62q0 54 -23.5 77.5t-69.5 23.5l-68 -1v-181z" />
<glyph unicode="&#xaf;" horiz-adv-x="850" d="M17 1189v193h816v-193h-816z" />
<glyph unicode="&#xb0;" horiz-adv-x="776" d="M113 1177q0 78 36.5 141.5t101 100t143.5 36.5t144 -36.5t102 -100t37 -141.5q0 -79 -37 -143t-102 -101t-144 -37t-143 37t-101 101t-37 143zM263 1177q0 -57 37.5 -95.5t93.5 -38.5t94 38.5t38 95.5q0 56 -38 94t-94 38t-93.5 -38t-37.5 -94z" />
<glyph unicode="&#xb1;" horiz-adv-x="1432" d="M223 0v220h988v-220h-988zM223 668v220h385v385h219v-385h385v-220h-385v-385h-219v385h-385z" />
<glyph unicode="&#xb2;" horiz-adv-x="802" d="M98 885v61q0 58 26 106t62.5 83t97.5 85q52 42 80.5 69t48.5 60t20 70q0 66 -38.5 93.5t-99.5 27.5q-72 0 -162 -30l-26 209l32 6q65 13 121 21.5t117 8.5q135 0 221.5 -60.5t86.5 -213.5q0 -61 -25.5 -115t-60 -94t-86.5 -91q-23 -22 -43 -43t-29 -36h289v-217h-632z " />
<glyph unicode="&#xb3;" horiz-adv-x="802" d="M131 896l27 189q92 -28 194 -28q52 0 80 19.5t28 54.5q0 43 -53.5 66.5t-149.5 23.5l-4 175q90 0 138.5 25t48.5 72q0 33 -19 51t-55 18q-99 0 -181 -28l-27 183q97 37 239 37q82 0 142.5 -25t93.5 -70.5t33 -105.5q0 -82 -40.5 -140t-115.5 -84v-4q90 -22 137.5 -78.5 t47.5 -140.5q0 -72 -42 -127t-117.5 -85.5t-175.5 -30.5q-132 0 -229 33z" />
<glyph unicode="&#xb4;" horiz-adv-x="607" d="M62 1197l227 324h273l-276 -324h-224z" />
<glyph unicode="&#xb5;" horiz-adv-x="1231" d="M142 348v20v605h265v-554q0 -107 43 -171.5t162 -64.5q58 0 106.5 28.5t77 83t28.5 127.5v552h261v-564q0 -87 11.5 -151t30 -112t51.5 -112l-261 -74q-43 86 -69 182q-13 -36 -52 -74t-105.5 -64.5t-154.5 -26.5q-71 0 -130 14v-388h-264v744z" />
<glyph unicode="&#xb6;" horiz-adv-x="1008" d="M76 1129q0 94 36 163t103 105.5t158 36.5h549v-142h-101v-1292h-154v1292h-102v-1292h-164v825q-100 2 -173 40t-112.5 106t-39.5 158z" />
<glyph unicode="&#xb7;" horiz-adv-x="518" d="M103 553q0 65 40 105t107 40q66 0 106.5 -40t40.5 -105q0 -64 -40.5 -103.5t-106.5 -39.5q-67 0 -107 39t-40 104z" />
<glyph unicode="&#xb8;" horiz-adv-x="434" d="M51 -315q38 -6 71 -6q123 0 123 68q0 65 -111 65q-11 0 -38 -3v254h151v-152q92 -3 140 -44.5t48 -117.5q0 -196 -304 -196q-43 0 -80 3v129z" />
<glyph unicode="&#xb9;" horiz-adv-x="778" d="M65 1607l394 139h122l1 -863h-230v593l-238 -76z" />
<glyph unicode="&#xbb;" horiz-adv-x="1139" d="M59 831h278l320 -344l-320 -336h-277l324 336zM507 831h278l320 -344l-320 -336h-277l324 336z" />
<glyph unicode="&#xbc;" horiz-adv-x="1919" d="M63 1311l394 139h122l1 -863h-230v594l-237 -76zM344 -20l912 1500l204 -87l-912 -1500zM1100 176v165l336 513l256 -1v-510h122v-167h-122v-177h-189v177h-403zM1328 343h175v259z" />
<glyph unicode="&#xbd;" horiz-adv-x="1953" d="M67 1311l394 139h121l1 -863h-230v594l-237 -76zM343 -20l912 1500l204 -87l-912 -1500zM1203 0v61q0 58 26 106t63 83.5t98 84.5q52 42 80.5 69t48.5 60t20 70q0 121 -139 121q-72 0 -162 -30l-26 209l32 6q65 13 121 21.5t117 8.5q135 0 221.5 -60.5t86.5 -213.5 q0 -61 -25.5 -115t-60 -94t-86.5 -91q-23 -22 -43 -43t-29 -36h289v-217h-632z" />
<glyph unicode="&#xbe;" horiz-adv-x="1987" d="M128 596l26 189q92 -28 195 -28q52 0 80 19.5t28 54.5q0 43 -54 66t-150 23l-4 176q90 0 139 25t49 71q0 34 -19.5 52t-54.5 18q-98 0 -182 -28l-26 183q97 37 239 37q82 0 142.5 -25t93.5 -70.5t33 -105.5q0 -82 -40.5 -140t-116.5 -84v-4q90 -23 138 -79t48 -140 q0 -72 -42 -127t-118 -85.5t-175 -30.5q-136 0 -229 33zM396 -20l913 1500l203 -87l-912 -1500zM1151 176v165l335 513l256 -1v-510h122v-167h-122v-177h-188v177h-403zM1378 343h176v259z" />
<glyph unicode="&#xbf;" horiz-adv-x="904" d="M105 -127q0 100 24.5 167t59.5 106t92 84q45 36 70.5 62t43 66t17.5 97v168h221v-162q0 -104 -23.5 -172t-57 -105.5t-87.5 -80.5q-41 -33 -64 -57t-38.5 -60t-15.5 -88q0 -76 43.5 -118t123.5 -43q98 0 246 35l37 -209q-66 -18 -143.5 -28t-152.5 -10q-189 0 -292.5 91 t-103.5 257zM370 862q0 64 40.5 103.5t107.5 39.5t107 -39t40 -104t-40 -105t-107 -40t-107.5 40t-40.5 105z" />
<glyph unicode="&#xc0;" horiz-adv-x="1400" d="M15 0l531 1434h313l524 -1434h-292l-93 277h-604l-92 -277h-287zM333 1821h300l194 -225h-264zM464 485h464l-208 618q-4 16 -11 44.5t-12 51.5h-4q-2 -15 -11 -51t-13 -45z" />
<glyph unicode="&#xc1;" horiz-adv-x="1400" d="M15 0l531 1434h313l524 -1434h-292l-93 277h-604l-92 -277h-287zM464 485h464l-208 618q-4 16 -11 44.5t-12 51.5h-4q-2 -15 -11 -51t-13 -45zM563 1607l227 221h320l-276 -221h-271z" />
<glyph unicode="&#xc2;" horiz-adv-x="1400" d="M15 0l531 1434h313l524 -1434h-292l-93 277h-604l-92 -277h-287zM316 1596l282 255h209l290 -255h-236l-163 132l-150 -132h-232zM464 485h464l-208 618q-4 16 -11 44.5t-12 51.5h-4q-2 -15 -11 -51t-13 -45z" />
<glyph unicode="&#xc3;" horiz-adv-x="1400" d="M15 0l531 1434h313l524 -1434h-292l-93 277h-604l-92 -277h-287zM360 1601q0 129 52.5 201.5t147.5 72.5q35 0 68.5 -13.5t80.5 -38.5q41 -22 67 -32.5t51 -10.5q70 0 70 92h156q0 -128 -53 -201t-145 -73q-32 0 -66 13t-87 40q-39 20 -64 30t-44 10q-76 0 -76 -90h-158z M464 485h464l-208 618q-4 16 -11 44.5t-12 51.5h-4q-2 -15 -11 -51t-13 -45z" />
<glyph unicode="&#xc4;" horiz-adv-x="1400" d="M15 0l531 1434h313l524 -1434h-292l-93 277h-604l-92 -277h-287zM331 1721q0 65 41 102.5t111 37.5t111.5 -37.5t41.5 -102.5t-41 -103t-111 -38t-111.5 38.5t-41.5 102.5zM464 485h464l-208 618q-4 16 -11 44.5t-12 51.5h-4q-2 -15 -11 -51t-13 -45zM766 1721 q0 65 40.5 102.5t110.5 37.5t111.5 -37.5t41.5 -102.5t-41 -103t-111 -38t-111 38t-41 103z" />
<glyph unicode="&#xc5;" horiz-adv-x="1400" d="M15 0l531 1434h313l524 -1434h-292l-93 277h-604l-92 -277h-287zM464 485h464l-208 618q-4 16 -11 44.5t-12 51.5h-4q-2 -15 -11 -51t-13 -45zM471 1763q0 60 30 109t82.5 77t117.5 28q64 0 115.5 -27t81.5 -74.5t30 -106.5q0 -60 -30.5 -108.5t-83.5 -76t-119 -27.5 q-63 0 -114 27t-80.5 74t-29.5 105zM615 1767q0 -34 24.5 -57t61.5 -23q35 0 59 23t24 57t-24 57.5t-59 23.5q-37 0 -61.5 -23t-24.5 -58z" />
<glyph unicode="&#xc6;" horiz-adv-x="1864" d="M7 0l819 1434h930v-219h-529v-378h467v-221h-467v-397h561v-219h-826v297h-504l-164 -297h-287zM572 505h390v710z" />
<glyph unicode="&#xc7;" horiz-adv-x="1275" d="M80 713q0 236 90 404t262 255.5t414 87.5q150 0 324 -44l-69 -243q-47 16 -125.5 26t-143.5 10q-150 0 -256.5 -58t-162 -167.5t-55.5 -262.5q0 -154 48.5 -264t142 -167.5t224.5 -57.5q138 0 352 69l62 -243q-98 -38 -212.5 -58t-224.5 -20q-32 0 -48 1v-44 q116 -3 176 -49t60 -132q0 -203 -337 -203q-43 0 -81 3v159q37 -6 72 -6q56 0 85.5 15.5t29.5 42.5q0 68 -103 68l-27 -2v163q-239 49 -368 234t-129 483z" />
<glyph unicode="&#xc8;" horiz-adv-x="1072" d="M172 0v1434h795v-219h-530v-378h468v-221h-468v-397h562v-219h-827zM199 1811h300l194 -225h-264z" />
<glyph unicode="&#xc9;" horiz-adv-x="1072" d="M172 0v1434h795v-219h-530v-378h468v-221h-468v-397h562v-219h-827zM428 1597l227 221h320l-276 -221h-271z" />
<glyph unicode="&#xca;" horiz-adv-x="1072" d="M172 0v1434h795v-219h-530v-378h468v-221h-468v-397h562v-219h-827zM182 1586l282 255h209l290 -255h-236l-163 132l-150 -132h-232z" />
<glyph unicode="&#xcb;" horiz-adv-x="1072" d="M172 0v1434h795v-219h-530v-378h468v-221h-468v-397h562v-219h-827zM196 1711q0 65 41 102.5t111 37.5t111.5 -37.5t41.5 -102.5t-41 -103t-111 -38t-111.5 38.5t-41.5 102.5zM631 1711q0 65 40.5 102.5t110.5 37.5t111.5 -37.5t41.5 -102.5t-41 -103t-111 -38t-111 38 t-41 103z" />
<glyph unicode="&#xcc;" horiz-adv-x="614" d="M-60 1811h300l194 -225h-264zM175 0v1434h264v-1434h-264z" />
<glyph unicode="&#xcd;" horiz-adv-x="614" d="M170 1597l227 221h320l-276 -221h-271zM175 0v1434h264v-1434h-264z" />
<glyph unicode="&#xce;" horiz-adv-x="614" d="M-77 1586l282 255h209l290 -255h-236l-163 132l-150 -132h-232zM175 0v1434h264v-1434h-264z" />
<glyph unicode="&#xcf;" horiz-adv-x="614" d="M-62 1711q0 65 41 102.5t111 37.5t111.5 -37.5t41.5 -102.5t-41 -103t-111 -38t-111.5 38.5t-41.5 102.5zM175 0v1434h264v-1434h-264zM373 1711q0 65 40.5 102.5t110.5 37.5t111.5 -37.5t41.5 -102.5t-41 -103t-111 -38t-111 38t-41 103z" />
<glyph unicode="&#xd0;" horiz-adv-x="1485" d="M59 623v203h671v-203h-671zM172 -2v1435h499q363 0 548 -172t185 -527q0 -224 -93 -389.5t-262.5 -255t-392.5 -89.5zM437 225h221q150 0 256.5 59t162 171.5t55.5 272.5q0 243 -117.5 362.5t-347.5 118.5l-230 -2v-982z" />
<glyph unicode="&#xd1;" horiz-adv-x="1589" d="M172 0v1435h311l628 -952q12 -18 31.5 -56.5t29.5 -59.5h4q-5 37 -8 104t-3 126v837h252l1 -1434h-298l-646 978q-11 17 -27 51t-25 59h-6q4 -21 6 -88.5t2 -129.5v-870h-252zM455 1591q0 129 52.5 201.5t147.5 72.5q35 0 68.5 -13.5t80.5 -38.5q41 -22 67 -32.5 t51 -10.5q70 0 70 92h156q0 -128 -53 -201t-145 -73q-32 0 -66 13t-87 40q-39 20 -64 30t-44 10q-76 0 -76 -90h-158z" />
<glyph unicode="&#xd2;" horiz-adv-x="1549" d="M80 712q0 219 85 388t241.5 263t364.5 94q211 0 369.5 -94t243.5 -263t84 -388q0 -217 -85.5 -384.5t-243.5 -260t-368 -92.5q-208 0 -364.5 92.5t-241.5 260t-85 384.5zM365 712q0 -151 49.5 -265t141.5 -176.5t217 -62.5t218 62t142.5 175.5t49.5 263.5q0 154 -49 270 t-141.5 180t-219.5 64q-125 0 -217 -63.5t-141.5 -179t-49.5 -268.5zM409 1811h300l194 -225h-264z" />
<glyph unicode="&#xd3;" horiz-adv-x="1549" d="M80 712q0 219 85 388t241.5 263t364.5 94q211 0 369.5 -94t243.5 -263t84 -388q0 -217 -85.5 -384.5t-243.5 -260t-368 -92.5q-208 0 -364.5 92.5t-241.5 260t-85 384.5zM365 712q0 -151 49.5 -265t141.5 -176.5t217 -62.5t218 62t142.5 175.5t49.5 263.5q0 154 -49 270 t-141.5 180t-219.5 64q-125 0 -217 -63.5t-141.5 -179t-49.5 -268.5zM639 1597l227 221h320l-276 -221h-271z" />
<glyph unicode="&#xd4;" horiz-adv-x="1549" d="M80 712q0 219 85 388t241.5 263t364.5 94q211 0 369.5 -94t243.5 -263t84 -388q0 -217 -85.5 -384.5t-243.5 -260t-368 -92.5q-208 0 -364.5 92.5t-241.5 260t-85 384.5zM365 712q0 -151 49.5 -265t141.5 -176.5t217 -62.5t218 62t142.5 175.5t49.5 263.5q0 154 -49 270 t-141.5 180t-219.5 64q-125 0 -217 -63.5t-141.5 -179t-49.5 -268.5zM392 1586l282 255h209l290 -255h-236l-163 132l-150 -132h-232z" />
<glyph unicode="&#xd5;" horiz-adv-x="1549" d="M80 712q0 219 85 388t241.5 263t364.5 94q211 0 369.5 -94t243.5 -263t84 -388q0 -217 -85.5 -384.5t-243.5 -260t-368 -92.5q-208 0 -364.5 92.5t-241.5 260t-85 384.5zM365 712q0 -151 49.5 -265t141.5 -176.5t217 -62.5t218 62t142.5 175.5t49.5 263.5q0 154 -49 270 t-141.5 180t-219.5 64q-125 0 -217 -63.5t-141.5 -179t-49.5 -268.5zM437 1591q0 129 52.5 201.5t147.5 72.5q35 0 68.5 -13.5t80.5 -38.5q41 -22 67 -32.5t51 -10.5q70 0 70 92h156q0 -128 -53 -201t-145 -73q-32 0 -66 13t-87 40q-39 20 -64 30t-44 10q-76 0 -76 -90h-158 z" />
<glyph unicode="&#xd6;" horiz-adv-x="1549" d="M80 712q0 219 85 388t241.5 263t364.5 94q211 0 369.5 -94t243.5 -263t84 -388q0 -217 -85.5 -384.5t-243.5 -260t-368 -92.5q-208 0 -364.5 92.5t-241.5 260t-85 384.5zM365 712q0 -151 49.5 -265t141.5 -176.5t217 -62.5t218 62t142.5 175.5t49.5 263.5q0 154 -49 270 t-141.5 180t-219.5 64q-125 0 -217 -63.5t-141.5 -179t-49.5 -268.5zM407 1711q0 65 41 102.5t111 37.5t111.5 -37.5t41.5 -102.5t-41 -103t-111 -38t-111.5 38.5t-41.5 102.5zM842 1711q0 65 40.5 102.5t110.5 37.5t111.5 -37.5t41.5 -102.5t-41 -103t-111 -38t-111 38 t-41 103z" />
<glyph unicode="&#xd7;" horiz-adv-x="1432" d="M237 253l340 336l-340 340l139 142l342 -340l341 340l138 -146l-339 -336l340 -338l-141 -140l-339 333l-339 -333z" />
<glyph unicode="&#xd8;" horiz-adv-x="1550" d="M80 712q0 219 85 388t241.5 263t364.5 94q122 0 228 -32.5t191 -93.5l134 159l110 -90l-140 -164q86 -99 130.5 -232.5t43.5 -291.5q0 -217 -85.5 -384.5t-243.5 -260t-368 -92.5q-127 0 -236 35.5t-195 103.5l-146 -172l-109 91l153 181q-77 96 -117.5 223t-40.5 275z M365 712q0 -162 57 -282l601 705q-102 88 -250 88q-125 0 -217 -63.5t-141.5 -179t-49.5 -268.5zM507 310q52 -50 119 -76t147 -26q125 0 218 62t142.5 175.5t49.5 263.5q0 183 -70 314z" />
<glyph unicode="&#xd9;" horiz-adv-x="1456" d="M154 557v877h266v-859q0 -362 316 -362q300 0 300 347v874h265v-854q0 -604 -582 -604q-288 0 -426.5 149t-138.5 432zM361 1811h300l194 -225h-264z" />
<glyph unicode="&#xda;" horiz-adv-x="1456" d="M154 557v877h266v-859q0 -362 316 -362q300 0 300 347v874h265v-854q0 -604 -582 -604q-288 0 -426.5 149t-138.5 432zM591 1597l227 221h320l-276 -221h-271z" />
<glyph unicode="&#xdb;" horiz-adv-x="1456" d="M154 557v877h266v-859q0 -362 316 -362q300 0 300 347v874h265v-854q0 -604 -582 -604q-288 0 -426.5 149t-138.5 432zM344 1586l282 255h209l290 -255h-236l-163 132l-150 -132h-232z" />
<glyph unicode="&#xdc;" horiz-adv-x="1456" d="M154 557v877h266v-859q0 -362 316 -362q300 0 300 347v874h265v-854q0 -604 -582 -604q-288 0 -426.5 149t-138.5 432zM359 1711q0 65 41 102.5t111 37.5t111.5 -37.5t41.5 -102.5t-41 -103t-111 -38t-111.5 38.5t-41.5 102.5zM794 1711q0 65 40.5 102.5t110.5 37.5 t111.5 -37.5t41.5 -102.5t-41 -103t-111 -38t-111 38t-41 103z" />
<glyph unicode="&#xdd;" horiz-adv-x="1206" d="M6 1434h313l250 -566q11 -27 35 -102h3q9 37 37 102l263 566h297l-472 -931v-503h-265v499zM466 1597l227 221h320l-276 -221h-271z" />
<glyph unicode="&#xde;" horiz-adv-x="1221" d="M173 0v1434h263v-231h234q153 0 263.5 -52.5t170 -155.5t59.5 -251q0 -142 -68 -247t-188.5 -161.5t-275.5 -56.5h-194v-279h-264zM436 493h183q124 0 194.5 61.5t70.5 181.5q0 252 -243 252l-205 -1v-494z" />
<glyph unicode="&#xdf;" horiz-adv-x="1229" d="M144 2v1114q0 124 60 218.5t170 146t254 51.5q130 0 228 -41.5t152 -117t54 -175.5q0 -107 -29 -172t-69 -96t-101 -61q-52 -25 -76 -47t-25 -61q0 -33 18.5 -54.5t46 -34t77.5 -30.5q80 -27 132.5 -57t91 -95.5t38.5 -176.5q0 -161 -86.5 -249.5t-244.5 -88.5 q-157 1 -345 47l44 227q66 -24 127 -37t108 -13q157 0 157 107q0 33 -20 56.5t-49 39t-83 37.5q-82 33 -134.5 65t-90.5 94t-38 160q0 69 22.5 115.5t55.5 74t86 59.5q48 30 74.5 51t45 55t18.5 84q0 55 -49.5 88t-130.5 33q-69 0 -121 -28t-80.5 -78.5t-28.5 -116.5v-1093 h-259z" />
<glyph unicode="&#xe0;" horiz-adv-x="1082" d="M68 266q0 101 50.5 174.5t143.5 113t218 39.5q112 0 223 -53v64q0 92 -48 134.5t-141 42.5q-50 0 -142.5 -10.5t-171.5 -27.5l-28 218q141 20 221 29.5t134 9.5q211 0 320.5 -96t110.5 -286l2 -288q1 -147 74 -302l-239 -67q-48 100 -73 200q-19 -50 -65 -92t-107.5 -67 t-124.5 -25q-102 0 -182.5 31t-127.5 96t-47 162zM224 1538h266l167 -341h-230zM323 275q0 -43 44 -70.5t115 -27.5q65 0 115.5 24.5t78 66.5t27.5 94q-92 28 -198 28q-85 0 -134 -30.5t-48 -84.5z" />
<glyph unicode="&#xe1;" horiz-adv-x="1082" d="M68 266q0 101 50.5 174.5t143.5 113t218 39.5q112 0 223 -53v64q0 92 -48 134.5t-141 42.5q-50 0 -142.5 -10.5t-171.5 -27.5l-28 218q141 20 221 29.5t134 9.5q211 0 320.5 -96t110.5 -286l2 -288q1 -147 74 -302l-239 -67q-48 100 -73 200q-19 -50 -65 -92t-107.5 -67 t-124.5 -25q-102 0 -182.5 31t-127.5 96t-47 162zM323 275q0 -43 44 -70.5t115 -27.5q65 0 115.5 24.5t78 66.5t27.5 94q-92 28 -198 28q-85 0 -134 -30.5t-48 -84.5zM396 1197l228 324h272l-276 -324h-224z" />
<glyph unicode="&#xe2;" horiz-adv-x="1082" d="M68 266q0 101 50.5 174.5t143.5 113t218 39.5q112 0 223 -53v64q0 92 -48 134.5t-141 42.5q-50 0 -142.5 -10.5t-171.5 -27.5l-28 218q141 20 221 29.5t134 9.5q211 0 320.5 -96t110.5 -286l2 -288q1 -147 74 -302l-239 -67q-48 100 -73 200q-19 -50 -65 -92t-107.5 -67 t-124.5 -25q-102 0 -182.5 31t-127.5 96t-47 162zM207 1197l229 327h209l230 -327h-206l-133 175l-126 -175h-203zM323 275q0 -43 44 -70.5t115 -27.5q65 0 115.5 24.5t78 66.5t27.5 94q-92 28 -198 28q-85 0 -134 -30.5t-48 -84.5z" />
<glyph unicode="&#xe3;" horiz-adv-x="1082" d="M68 266q0 101 50.5 174.5t143.5 113t218 39.5q112 0 223 -53v64q0 92 -48 134.5t-141 42.5q-50 0 -142.5 -10.5t-171.5 -27.5l-28 218q141 20 221 29.5t134 9.5q211 0 320.5 -96t110.5 -286l2 -288q1 -147 74 -302l-239 -67q-48 100 -73 200q-19 -50 -65 -92t-107.5 -67 t-124.5 -25q-102 0 -182.5 31t-127.5 96t-47 162zM201 1191q0 129 52.5 201.5t147.5 72.5q35 0 68.5 -13.5t80.5 -38.5q41 -22 67 -32.5t51 -10.5q70 0 70 92h156q0 -128 -53 -201t-145 -73q-32 0 -66 13t-87 40q-39 20 -64 30t-44 10q-76 0 -76 -90h-158zM323 275 q0 -43 44 -70.5t115 -27.5q65 0 115.5 24.5t78 66.5t27.5 94q-92 28 -198 28q-85 0 -134 -30.5t-48 -84.5z" />
<glyph unicode="&#xe4;" horiz-adv-x="1082" d="M68 266q0 101 50.5 174.5t143.5 113t218 39.5q112 0 223 -53v64q0 92 -48 134.5t-141 42.5q-50 0 -142.5 -10.5t-171.5 -27.5l-28 218q141 20 221 29.5t134 9.5q211 0 320.5 -96t110.5 -286l2 -288q1 -147 74 -302l-239 -67q-48 100 -73 200q-19 -50 -65 -92t-107.5 -67 t-124.5 -25q-102 0 -182.5 31t-127.5 96t-47 162zM171 1311q0 65 41 102.5t111 37.5t111.5 -37.5t41.5 -102.5t-41 -103t-111 -38t-111.5 38.5t-41.5 102.5zM323 275q0 -43 44 -70.5t115 -27.5q65 0 115.5 24.5t78 66.5t27.5 94q-92 28 -198 28q-85 0 -134 -30.5t-48 -84.5z M606 1311q0 65 40.5 102.5t110.5 37.5t111.5 -37.5t41.5 -102.5t-41 -103t-111 -38t-111 38t-41 103z" />
<glyph unicode="&#xe5;" horiz-adv-x="1082" d="M68 266q0 101 50.5 174.5t143.5 113t218 39.5q112 0 223 -53v64q0 92 -48 134.5t-141 42.5q-50 0 -142.5 -10.5t-171.5 -27.5l-28 218q141 20 221 29.5t134 9.5q211 0 320.5 -96t110.5 -286l2 -288q1 -147 74 -302l-239 -67q-48 100 -73 200q-19 -50 -65 -92t-107.5 -67 t-124.5 -25q-102 0 -182.5 31t-127.5 96t-47 162zM312 1359q0 60 30 109t82.5 77t117.5 28q64 0 115.5 -27t81.5 -74.5t30 -106.5q0 -60 -30.5 -108.5t-83.5 -76t-119 -27.5q-63 0 -114 27t-80.5 74t-29.5 105zM323 275q0 -43 44 -70.5t115 -27.5q65 0 115.5 24.5t78 66.5 t27.5 94q-92 28 -198 28q-85 0 -134 -30.5t-48 -84.5zM456 1363q0 -34 24.5 -57t61.5 -23q35 0 59 23t24 57t-24 57.5t-59 23.5q-37 0 -61.5 -23t-24.5 -58z" />
<glyph unicode="&#xe6;" horiz-adv-x="1699" d="M67 266q0 95 50.5 164t143.5 106t218 37q113 0 223 -54l1 8v77q0 85 -48 124t-141 39q-51 0 -143 -10t-171 -27l-28 231q141 20 221 29.5t134 9.5q224 0 331 -106q129 109 346 109q150 0 250.5 -62.5t148.5 -163.5t48 -219q0 -80 -24 -163l-658 -5q25 -92 96.5 -143.5 t183.5 -51.5q67 0 142 15t150 44l51 -207q-71 -30 -180 -50t-198 -20q-152 0 -263 50t-174 152q-17 -54 -71 -100.5t-129 -74t-153 -27.5q-102 0 -182.5 31t-127.5 96t-47 162zM322 277q0 -44 44 -72t115 -28q88 0 153 29t96 79q-12 36 -18 77q-96 32 -208 32 q-84 0 -133 -31.5t-49 -85.5zM962 568l431 4q2 18 2 28q0 80 -48.5 133.5t-151.5 53.5q-104 0 -161.5 -59t-71.5 -160z" />
<glyph unicode="&#xe7;" horiz-adv-x="971" d="M81 485q0 155 59 271.5t172.5 179.5t272.5 62q91 1 179.5 -14.5t149.5 -41.5l-47 -219q-109 41 -226 41q-150 0 -217.5 -69t-67.5 -205q0 -144 72.5 -214.5t210.5 -70.5q59 0 104.5 10.5t118.5 34.5l65 -212q-155 -50 -302 -59v-68q92 -3 140 -44.5t48 -117.5 q0 -196 -303 -196q-44 0 -81 3v129q37 -6 72 -6q122 0 122 68q0 65 -110 65q-12 0 -39 -3v175q-124 18 -212.5 83.5t-134.5 172t-46 245.5z" />
<glyph unicode="&#xe8;" horiz-adv-x="1096" d="M80 493q0 164 59.5 278.5t172 173t270.5 58.5q150 0 250.5 -62.5t148.5 -163.5t48 -219q0 -80 -24 -163l-657 -5q25 -93 95.5 -144t183.5 -51q67 0 142 15t150 44l51 -207q-71 -30 -180 -50t-198 -20q-243 0 -377.5 126.5t-134.5 389.5zM244 1538h266l167 -341h-230z M340 568l432 4q1 9 1 26q0 80 -48.5 134.5t-151.5 54.5q-104 0 -161 -58.5t-72 -160.5z" />
<glyph unicode="&#xe9;" horiz-adv-x="1096" d="M80 493q0 164 59.5 278.5t172 173t270.5 58.5q150 0 250.5 -62.5t148.5 -163.5t48 -219q0 -80 -24 -163l-657 -5q25 -93 95.5 -144t183.5 -51q67 0 142 15t150 44l51 -207q-71 -30 -180 -50t-198 -20q-243 0 -377.5 126.5t-134.5 389.5zM340 568l432 4q1 9 1 26 q0 80 -48.5 134.5t-151.5 54.5q-104 0 -161 -58.5t-72 -160.5zM417 1197l228 324h272l-276 -324h-224z" />
<glyph unicode="&#xea;" horiz-adv-x="1096" d="M80 493q0 164 59.5 278.5t172 173t270.5 58.5q150 0 250.5 -62.5t148.5 -163.5t48 -219q0 -80 -24 -163l-657 -5q25 -93 95.5 -144t183.5 -51q67 0 142 15t150 44l51 -207q-71 -30 -180 -50t-198 -20q-243 0 -377.5 126.5t-134.5 389.5zM227 1197l229 327h209l230 -327 h-206l-133 175l-126 -175h-203zM340 568l432 4q1 9 1 26q0 80 -48.5 134.5t-151.5 54.5q-104 0 -161 -58.5t-72 -160.5z" />
<glyph unicode="&#xeb;" horiz-adv-x="1096" d="M80 493q0 164 59.5 278.5t172 173t270.5 58.5q150 0 250.5 -62.5t148.5 -163.5t48 -219q0 -80 -24 -163l-657 -5q25 -93 95.5 -144t183.5 -51q67 0 142 15t150 44l51 -207q-71 -30 -180 -50t-198 -20q-243 0 -377.5 126.5t-134.5 389.5zM192 1311q0 65 41 102.5t111 37.5 t111.5 -37.5t41.5 -102.5t-41 -103t-111 -38t-111.5 38.5t-41.5 102.5zM340 568l432 4q1 9 1 26q0 80 -48.5 134.5t-151.5 54.5q-104 0 -161 -58.5t-72 -160.5zM627 1311q0 65 40.5 102.5t110.5 37.5t111.5 -37.5t41.5 -102.5t-41 -103t-111 -38t-111 38t-41 103z" />
<glyph unicode="&#xec;" horiz-adv-x="553" d="M-40 1538h266l167 -341h-230zM144 0v974h265v-974h-265z" />
<glyph unicode="&#xed;" horiz-adv-x="553" d="M132 1197l228 324h272l-276 -324h-224zM144 0v974h265v-974h-265z" />
<glyph unicode="&#xee;" horiz-adv-x="553" d="M-58 1197l229 327h209l230 -327h-206l-133 175l-126 -175h-203zM144 0v974h265v-974h-265z" />
<glyph unicode="&#xef;" horiz-adv-x="553" d="M-93 1311q0 65 41 102.5t111 37.5t111.5 -37.5t41.5 -102.5t-41 -103t-111 -38t-111.5 38.5t-41.5 102.5zM144 0v974h265v-974h-265zM342 1311q0 65 40.5 102.5t110.5 37.5t111.5 -37.5t41.5 -102.5t-41 -103t-111 -38t-111 38t-41 103z" />
<glyph unicode="&#xf0;" horiz-adv-x="1192" d="M80 509q0 156 60 277t168.5 188.5t250.5 67.5q119 0 207 -76l4 2q-84 150 -196 247l-294 -146l-71 127l251 120q-34 29 -147 115l165 105q14 -9 102 -79l65 -51l278 137l70 -123l-231 -113q349 -295 349 -756q0 -168 -65 -298.5t-183.5 -203.5t-274.5 -73 q-158 0 -272.5 64.5t-175 184.5t-60.5 284zM350 511q0 -154 65.5 -241t182.5 -87q74 0 129 40.5t84.5 116t29.5 177.5q0 324 -239 324q-78 0 -134.5 -40t-87 -114.5t-30.5 -175.5z" />
<glyph unicode="&#xf1;" horiz-adv-x="1212" d="M144 0l2 974h222l29 -92q115 118 303 118q126 0 212 -50t128.5 -138t42.5 -202v-610h-264v537q0 109 -46.5 177.5t-153.5 68.5q-59 0 -112 -21.5t-96 -61.5l-2 -700h-265zM267 1191q0 129 52.5 201.5t147.5 72.5q35 0 68.5 -13.5t80.5 -38.5q41 -22 67 -32.5t51 -10.5 q70 0 70 92h156q0 -128 -53 -201t-145 -73q-32 0 -66 13t-87 40q-39 20 -64 30t-44 10q-76 0 -76 -90h-158z" />
<glyph unicode="&#xf2;" horiz-adv-x="1234" d="M80 482q0 154 67 271t189 181t282 64q161 0 283 -64t187.5 -181t64.5 -271q0 -152 -66.5 -266.5t-187.5 -177.5t-281 -63t-282 63t-189 178t-67 266zM300 1538h266l167 -341h-230zM344 480q0 -84 34.5 -147.5t97 -98t144.5 -34.5q79 0 139.5 35t94.5 99t35 148 q-2 85 -36.5 149.5t-94.5 100t-138 35.5q-82 0 -144.5 -36t-97 -101t-34.5 -150z" />
<glyph unicode="&#xf3;" horiz-adv-x="1234" d="M80 482q0 154 67 271t189 181t282 64q161 0 283 -64t187.5 -181t64.5 -271q0 -152 -66.5 -266.5t-187.5 -177.5t-281 -63t-282 63t-189 178t-67 266zM344 480q0 -84 34.5 -147.5t97 -98t144.5 -34.5q79 0 139.5 35t94.5 99t35 148q-2 85 -36.5 149.5t-94.5 100t-138 35.5 q-82 0 -144.5 -36t-97 -101t-34.5 -150zM473 1197l228 324h272l-276 -324h-224z" />
<glyph unicode="&#xf4;" horiz-adv-x="1234" d="M80 482q0 154 67 271t189 181t282 64q161 0 283 -64t187.5 -181t64.5 -271q0 -152 -66.5 -266.5t-187.5 -177.5t-281 -63t-282 63t-189 178t-67 266zM283 1197l229 327h209l230 -327h-206l-133 175l-126 -175h-203zM344 480q0 -84 34.5 -147.5t97 -98t144.5 -34.5 q79 0 139.5 35t94.5 99t35 148q-2 85 -36.5 149.5t-94.5 100t-138 35.5q-82 0 -144.5 -36t-97 -101t-34.5 -150z" />
<glyph unicode="&#xf5;" horiz-adv-x="1234" d="M80 482q0 154 67 271t189 181t282 64q161 0 283 -64t187.5 -181t64.5 -271q0 -152 -66.5 -266.5t-187.5 -177.5t-281 -63t-282 63t-189 178t-67 266zM277 1191q0 129 52.5 201.5t147.5 72.5q35 0 68.5 -13.5t80.5 -38.5q41 -22 67 -32.5t51 -10.5q70 0 70 92h156 q0 -128 -53 -201t-145 -73q-32 0 -66 13t-87 40q-39 20 -64 30t-44 10q-76 0 -76 -90h-158zM344 480q0 -84 34.5 -147.5t97 -98t144.5 -34.5q79 0 139.5 35t94.5 99t35 148q-2 85 -36.5 149.5t-94.5 100t-138 35.5q-82 0 -144.5 -36t-97 -101t-34.5 -150z" />
<glyph unicode="&#xf6;" horiz-adv-x="1233" d="M80 482q0 154 67 271t189 181t282 64q161 0 283 -64t187.5 -181t64.5 -271q0 -152 -66.5 -266.5t-187.5 -177.5t-281 -63t-282 63t-189 178t-67 266zM248 1311q0 65 41 102.5t111 37.5t111.5 -37.5t41.5 -102.5t-41 -103t-111 -38t-111.5 38.5t-41.5 102.5zM344 480 q0 -84 34.5 -147.5t97 -98t144.5 -34.5q79 0 139.5 35t94.5 99t35 148q-2 85 -36.5 149.5t-94.5 100t-138 35.5q-82 0 -144.5 -36t-97 -101t-34.5 -150zM683 1311q0 65 40.5 102.5t110.5 37.5t111.5 -37.5t41.5 -102.5t-41 -103t-111 -38t-111 38t-41 103z" />
<glyph unicode="&#xf7;" horiz-adv-x="1432" d="M236 480v220h963v-220h-963zM581 192q0 62 39 103.5t99 41.5q62 0 98.5 -38.5t36.5 -103.5q0 -59 -39 -97.5t-96 -38.5q-38 0 -69.5 18t-50 48.5t-18.5 66.5zM585 980q0 61 39 101.5t99 40.5q63 0 99 -38t36 -102q0 -40 -18 -71.5t-49 -49t-68 -17.5q-38 0 -69.5 18 t-50 49.5t-18.5 68.5z" />
<glyph unicode="&#xf8;" horiz-adv-x="1235" d="M13 92l131 129q-64 116 -64 261q0 154 67 271t189 181t282 64q132 0 242 -45l150 155l175 -167l-131 -136q49 -64 74.5 -146t24.5 -177q0 -152 -66.5 -266.5t-187.5 -177.5t-281 -63q-177 0 -304 75l-129 -127zM344 480q0 -84 34.5 -147.5t97 -98t144.5 -34.5 q79 0 139.5 35t94.5 99t35 148q-2 85 -36.5 149.5t-94.5 100t-138 35.5q-82 0 -144.5 -36t-97 -101t-34.5 -150z" />
<glyph unicode="&#xf9;" horiz-adv-x="1212" d="M126 368v605h265v-554q0 -107 43 -171.5t162 -64.5q58 0 106.5 28.5t77 83t28.5 127.5v552h261v-564q0 -87 11.5 -151t30 -112t51.5 -112l-261 -74q-46 93 -69 182q-14 -36 -53 -74t-105 -64.5t-154 -26.5q-143 0 -231 55t-125.5 142.5t-37.5 192.5zM290 1538h266 l167 -341h-230z" />
<glyph unicode="&#xfa;" horiz-adv-x="1212" d="M126 368v605h265v-554q0 -107 43 -171.5t162 -64.5q58 0 106.5 28.5t77 83t28.5 127.5v552h261v-564q0 -87 11.5 -151t30 -112t51.5 -112l-261 -74q-46 93 -69 182q-14 -36 -53 -74t-105 -64.5t-154 -26.5q-143 0 -231 55t-125.5 142.5t-37.5 192.5zM462 1197l228 324 h272l-276 -324h-224z" />
<glyph unicode="&#xfb;" horiz-adv-x="1212" d="M126 368v605h265v-554q0 -107 43 -171.5t162 -64.5q58 0 106.5 28.5t77 83t28.5 127.5v552h261v-564q0 -87 11.5 -151t30 -112t51.5 -112l-261 -74q-46 93 -69 182q-14 -36 -53 -74t-105 -64.5t-154 -26.5q-143 0 -231 55t-125.5 142.5t-37.5 192.5zM272 1197l229 327 h209l230 -327h-206l-133 175l-126 -175h-203z" />
<glyph unicode="&#xfc;" horiz-adv-x="1212" d="M126 368v605h265v-554q0 -107 43 -171.5t162 -64.5q58 0 106.5 28.5t77 83t28.5 127.5v552h261v-564q0 -87 11.5 -151t30 -112t51.5 -112l-261 -74q-46 93 -69 182q-14 -36 -53 -74t-105 -64.5t-154 -26.5q-143 0 -231 55t-125.5 142.5t-37.5 192.5zM237 1311 q0 65 41 102.5t111 37.5t111.5 -37.5t41.5 -102.5t-41 -103t-111 -38t-111.5 38.5t-41.5 102.5zM672 1311q0 65 40.5 102.5t110.5 37.5t111.5 -37.5t41.5 -102.5t-41 -103t-111 -38t-111 38t-41 103z" />
<glyph unicode="&#xfd;" horiz-adv-x="1065" d="M2 974h298l218 -625l20 -78h6l20 76l229 627l274 2l-455 -1114q-62 -131 -137.5 -200t-150 -94.5t-189.5 -45.5l-25 -4l-37 240q126 19 197.5 64.5t118.5 135.5l18 47zM388 1197l228 324h272l-276 -324h-224z" />
<glyph unicode="&#xfe;" horiz-adv-x="1248" d="M144 -470l2 1444v460h264v-571q53 66 133.5 101.5t177.5 35.5q141 0 241.5 -57.5t153 -168t52.5 -265.5q0 -163 -54.5 -282.5t-162.5 -184.5t-263 -65q-120 0 -185.5 50t-92.5 135v-632h-266zM410 595l1 -117q0 -97 35 -161.5t93 -95.5t128 -31q105 0 165.5 82.5 t60.5 238.5q0 130 -63.5 201t-178.5 71q-70 0 -132.5 -23t-108.5 -65v-100z" />
<glyph unicode="&#xff;" horiz-adv-x="1065" d="M2 974h298l218 -625l20 -78h6l20 76l229 627l274 2l-455 -1114q-62 -131 -137.5 -200t-150 -94.5t-189.5 -45.5l-25 -4l-37 240q126 19 197.5 64.5t118.5 135.5l18 47zM163 1311q0 65 41 102.5t111 37.5t111.5 -37.5t41.5 -102.5t-41 -103t-111 -38t-111.5 38.5 t-41.5 102.5zM598 1311q0 65 40.5 102.5t110.5 37.5t111.5 -37.5t41.5 -102.5t-41 -103t-111 -38t-111 38t-41 103z" />
<glyph unicode="&#x152;" horiz-adv-x="1919" d="M79 712q0 219 90.5 388t257 263t386.5 94q39 0 82.5 -4t83.5 -9q88 -10 123 -10h703v-219h-529v-378h467v-221h-467v-397h561v-219h-735q-48 0 -145 -11q-128 -14 -207 -14q-202 0 -354 92.5t-234.5 260t-82.5 384.5zM371 712q0 -149 46 -261.5t131.5 -174t202.5 -61.5 q152 0 260 19v957q-83 25 -196 25q-136 0 -236.5 -62.5t-154 -176.5t-53.5 -265z" />
<glyph unicode="&#x153;" horiz-adv-x="1895" d="M77 482q0 154 67 271t189 181t282 64q124 0 225.5 -38.5t172.5 -109.5q65 75 163.5 114t226.5 39q150 0 250.5 -62.5t148.5 -163.5t48 -219q0 -80 -24 -163l-658 -5q25 -92 96.5 -143.5t183.5 -51.5q67 0 142 15t150 44l51 -207q-71 -30 -180 -50t-198 -20 q-268 0 -398 148q-71 -72 -173.5 -111t-226.5 -39q-160 0 -282 63t-189 178t-67 266zM341 480q0 -84 34.5 -147.5t97 -98t144.5 -34.5q79 0 139.5 35t94.5 99t35 148q-2 85 -36.5 149.5t-94.5 100t-138 35.5q-82 0 -144.5 -36t-97 -101t-34.5 -150zM1161 568l432 4q1 9 1 26 q0 80 -48.5 134.5t-151.5 54.5q-104 0 -161.5 -59t-71.5 -160z" />
<glyph unicode="&#x178;" horiz-adv-x="1206" d="M6 1434h313l250 -566q11 -27 35 -102h3q9 37 37 102l263 566h297l-472 -931v-503h-265v499zM234 1711q0 65 41 102.5t111 37.5t111.5 -37.5t41.5 -102.5t-41 -103t-111 -38t-111.5 38.5t-41.5 102.5zM669 1711q0 65 40.5 102.5t110.5 37.5t111.5 -37.5t41.5 -102.5 t-41 -103t-111 -38t-111 38t-41 103z" />
<glyph unicode="&#x2c6;" horiz-adv-x="777" d="M51 1197l229 327h209l230 -327h-206l-133 175l-126 -175h-203z" />
<glyph unicode="&#x2dc;" horiz-adv-x="753" d="M42 1191q0 129 52.5 201.5t147.5 72.5q35 0 68.5 -13.5t80.5 -38.5q41 -22 67 -32.5t51 -10.5q70 0 70 92h156q0 -128 -53 -201t-145 -73q-32 0 -66 13t-87 40q-39 20 -64 30t-44 10q-76 0 -76 -90h-158z" />
<glyph unicode="&#x2000;" horiz-adv-x="988" />
<glyph unicode="&#x2001;" horiz-adv-x="1977" />
<glyph unicode="&#x2002;" horiz-adv-x="988" />
<glyph unicode="&#x2003;" horiz-adv-x="1977" />
<glyph unicode="&#x2004;" horiz-adv-x="659" />
<glyph unicode="&#x2005;" horiz-adv-x="494" />
<glyph unicode="&#x2006;" horiz-adv-x="329" />
<glyph unicode="&#x2007;" horiz-adv-x="329" />
<glyph unicode="&#x2008;" horiz-adv-x="247" />
<glyph unicode="&#x2009;" horiz-adv-x="395" />
<glyph unicode="&#x200a;" horiz-adv-x="109" />
<glyph unicode="&#x2010;" horiz-adv-x="825" d="M143 423v190h547v-190h-547z" />
<glyph unicode="&#x2011;" horiz-adv-x="825" d="M143 423v190h547v-190h-547z" />
<glyph unicode="&#x2012;" horiz-adv-x="825" d="M143 423v190h547v-190h-547z" />
<glyph unicode="&#x2013;" horiz-adv-x="1024" d="M0 423v190h1024v-190h-1024z" />
<glyph unicode="&#x2014;" horiz-adv-x="2048" d="M0 423v190h2024v-190h-2024z" />
<glyph unicode="&#x2018;" horiz-adv-x="552" d="M96 978q0 151 46.5 289.5t133.5 236.5l197 -104q-65 -109 -97.5 -211.5t-39.5 -210.5h-240z" />
<glyph unicode="&#x2019;" horiz-adv-x="552" d="M123 1043q65 109 97.5 211.5t39.5 210.5h240q0 -151 -46.5 -289.5t-133.5 -236.5z" />
<glyph unicode="&#x201a;" horiz-adv-x="552" d="M52 -187q65 109 97.5 211.5t39.5 210.5h240q0 -151 -46.5 -289.5t-133.5 -236.5z" />
<glyph unicode="&#x201c;" horiz-adv-x="931" d="M95 978q1 151 47.5 290t132.5 236l197 -104q-65 -109 -97.5 -211.5t-39.5 -210.5h-240zM473 978q1 151 47.5 289.5t132.5 236.5l197 -104q-64 -108 -96.5 -210.5t-40.5 -211.5h-240z" />
<glyph unicode="&#x201d;" horiz-adv-x="931" d="M86 1042q65 109 97.5 211.5t39.5 210.5h240q0 -150 -46.5 -288.5t-133.5 -236.5zM465 1042q64 108 96.5 211t40.5 211h240q-1 -150 -47.5 -288.5t-132.5 -236.5z" />
<glyph unicode="&#x201e;" horiz-adv-x="931" d="M45 -187q65 109 97.5 211.5t39.5 210.5h240q0 -151 -46.5 -289.5t-133.5 -236.5zM448 -187q65 109 97.5 211.5t39.5 210.5h240q0 -151 -46.5 -289.5t-133.5 -236.5z" />
<glyph unicode="&#x2022;" horiz-adv-x="854" d="M159 511q0 -73 36 -134.5t98 -97.5t134 -36t133.5 36.5t98 98t36.5 133.5t-36 133.5t-98 97.5t-134 36q-73 0 -134.5 -36t-97.5 -97.5t-36 -133.5z" />
<glyph unicode="&#x2026;" horiz-adv-x="1746" d="M144 121q0 65 40 105t107 40q66 0 106.5 -40t40.5 -105q0 -64 -40.5 -103.5t-106.5 -39.5q-67 0 -107 39t-40 104zM725 121q0 65 40 105t107 40q66 0 106.5 -40t40.5 -105q0 -64 -40.5 -103.5t-106.5 -39.5q-67 0 -107 39t-40 104zM1307 121q0 65 40 105t107 40 q66 0 106.5 -40t40.5 -105q0 -64 -40.5 -103.5t-106.5 -39.5q-67 0 -107 39t-40 104z" />
<glyph unicode="&#x202f;" horiz-adv-x="395" />
<glyph unicode="&#x2039;" horiz-adv-x="686" d="M66 487l320 344h278l-325 -344l324 -336h-277z" />
<glyph unicode="&#x203a;" horiz-adv-x="686" d="M22 831l325 -344l-324 -336h277l320 336l-320 344h-278z" />
<glyph unicode="&#x205f;" horiz-adv-x="494" />
<glyph unicode="&#x20ac;" d="M107 471v173h92q-2 44 -2 69q0 27 2 79h-92v172h114q50 240 199.5 368t381.5 128q63 0 132 -12t129 -32l-62 -237q-34 16 -90 26t-104 10q-113 0 -191 -64.5t-116 -186.5h435v-172h-465q-2 -23 -2 -71q0 -29 2 -77h465v-173h-435q37 -119 111.5 -182.5t181.5 -63.5 q94 0 232 70l69 -230q-70 -39 -159.5 -62t-171.5 -23q-218 0 -358 127t-186 364h-112z" />
<glyph unicode="&#x2122;" horiz-adv-x="1580" d="M79 1249v185h508v-185h-158v-474h-192v474h-158zM660 772v662h217l149 -401h4l158 401h207v-662h-159v399h-4l-156 -399h-110l-145 399h-5v-399h-156z" />
<glyph unicode="&#x25fc;" horiz-adv-x="975" d="M0 0v975h975v-975h-975z" />
</font>
</defs>
</svg>
