<svg id="SvgjsSvg1012" width="288" height="288" xmlns="http://www.w3.org/2000/svg" version="1.1" xmlns:xlink="http://www.w3.org/1999/xlink" xmlns:svgjs="http://svgjs.com/svgjs"><defs id="SvgjsDefs1013"></defs><g id="SvgjsG1014"><svg xmlns="http://www.w3.org/2000/svg" data-name="Layer 1" viewBox="0 0 40 40" width="288" height="288"><path fill="#ffffff" d="M17.5,12.5a5,5,0,1,0,5,5A5.0059,5.0059,0,0,0,17.5,12.5Zm0,9a4,4,0,1,1,4-4A4.0045,4.0045,0,0,1,17.5,21.5Z" class="aw-theme-iconOutline color464646 svgShape"></path><path fill="#ffffff" d="M36.5166,26.2515,36.249,26.12l-.2431.1739a7.7,7.7,0,0,1-9.0118,0L26.751,26.12l-.2676.1319a6.5172,6.5172,0,0,0-2.5584,2.2013l-1.14-.5392a1.1429,1.1429,0,0,0-.9405-.0313,1.2285,1.2285,0,0,0-.6787.7432L19.2686,34H15.7314L13.833,28.6235a1.2044,1.2044,0,0,0-.6768-.7221,1.17,1.17,0,0,0-.9414.0224L7.1006,30.35,4.5981,27.8457l2.4307-5.1152a1.1743,1.1743,0,0,0-.6816-1.62L1,19.2124V15.6748l5.3462-1.8979a1.1908,1.1908,0,0,0,.7026-.6626,1.1779,1.1779,0,0,0-.0219-.9556l-2.43-5.1148L7.1,4.5415l5.1152,2.4316a1.19,1.19,0,0,0,.9659.0215,1.1565,1.1565,0,0,0,.6523-.6753L15.7305,1H19.27l1.897,5.32a1.1689,1.1689,0,0,0,.6543.6836,1.1929,1.1929,0,0,0,.9648-.0263L27.9,4.5435l2.501,2.5014L27.97,12.1587a1.1757,1.1757,0,0,0,.6836,1.6182L34,15.6748v1.0765a4.5085,4.5085,0,0,0-7,3.6862C27,22.957,29.0068,26,31.5,26S36,22.957,36,20.4375a4.3559,4.3559,0,0,0-1-2.7546V14.9688l-6.0127-2.1343a.1919.1919,0,0,1-.1191-.1045.1761.1761,0,0,1,.0048-.1421l2.7354-5.751-3.501-3.4995-5.751,2.7363a.186.186,0,0,1-.1528.0059.1683.1683,0,0,1-.0952-.0957L19.9746,0H15.0254L12.8916,5.9834a.165.165,0,0,1-.0933.0874.1976.1976,0,0,1-.1543-.001L6.8916,3.3354l-3.501,3.5,2.7329,5.752a.1747.1747,0,0,1,.002.1426.1834.1834,0,0,1-.1133.1035L0,14.9688v4.95l6.0127,2.1342a.1879.1879,0,0,1,.1186.1045A.1727.1727,0,0,1,6.126,22.3L3.3921,28.0537l3.5,3.5025,5.7524-2.7291a.1636.1636,0,0,1,.13-.0014.2091.2091,0,0,1,.1162.1323L15.0244,35h4.9512l2.1328-6.04a.2493.2493,0,0,1,.1187-.1538.1608.1608,0,0,1,.13.0112l1.0957.5185A5.2056,5.2056,0,0,0,23,31.4214V40H40V31.4214A5.88,5.88,0,0,0,36.5166,26.2515ZM31.5,25c-1.8525,0-3.5-2.5513-3.5-4.5625a3.5006,3.5006,0,0,1,7,0C35,22.4487,33.3525,25,31.5,25ZM39,39H36V33H35v6H28V33H27v6H24V31.4214a4.83,4.83,0,0,1,2.668-4.1387,8.6839,8.6839,0,0,0,9.664,0A4.8305,4.8305,0,0,1,39,31.4214Z" class="aw-theme-iconOutline color464646 svgShape"></path></svg></g></svg>