<svg version="1.1" id="Layer_1" xmlns="http://www.w3.org/2000/svg" xmlns:xlink="http://www.w3.org/1999/xlink" x="0px" y="0px"
	 viewBox="0 0 16 16" enable-background="new 0 0 16 16" xml:space="preserve">
	<path class="aw-theme-iconOutline" fill="#464646" d="M8,16c-2,0-4.1-0.8-5.7-2.3c-3.1-3.1-3.1-8.2,0-11.3l0,0l0,0C3.9,0.8,5.9,0,8,0c0,0,0,0,0,0
		c2.1,0,4.1,0.8,5.7,2.3c3.1,3.1,3.1,8.2,0,11.3C12.1,15.2,10,16,8,16z M8,1C8,1,8,1,8,1c-1.9,0-3.6,0.7-5,2.1l0,0
		c-2.7,2.7-2.7,7.2,0,9.9c2.7,2.7,7.2,2.7,9.9,0c2.7-2.7,2.7-7.2,0-9.9C11.6,1.7,9.9,1,8,1z M2.7,2.7L2.7,2.7L2.7,2.7z"/>
	<polygon class="aw-theme-iconOutline" fill="#464646" points="11.9,4.9 11.1,4.1 8,7.3 4.9,4.1 4.1,4.9 7.3,8 4.1,11.1 4.9,11.9 8,8.7 11.1,11.9 11.9,11.1 
		8.7,8 	"/>
</svg>
